<?xml version="1.0" encoding="UTF-8"?>
<svg id="Layer_1" data-name="Layer 1" xmlns="http://www.w3.org/2000/svg" viewBox="0 0 3658.24 1922.02">
  <defs>
    <style>
      .cls-1 {
        fill: #ab9570;
      }

      .cls-2 {
        fill: #c2b59b;
      }

      .cls-3 {
        fill: #1e9649;
      }
    </style>
  </defs>
  <rect class="cls-2" x="673.9" y="14.99" width="2447.52" height="428.17"/>
  <polygon class="cls-1" points="675.81 140.67 173.96 180.69 173.96 66 823.83 105.79 675.81 140.67"/>
  <path class="cls-1" d="M3618.99,1887.01H82.77l6.43-1619.48,30.89-52.96-30.68-37.55-6.63-78.69,2599.46,14.3,272.92-2.84-92.81-37.32,614.89-14.1,21.83,43.61,119.93-3.66-54.85,97.81s-16.34,7.43-16.47,21.11c-.13,13.69,25.11,17.35,25.11,17.35l46.21,1652.41Z"/>
  <path class="cls-2" d="M1831.86,1908.79v-54.22s722.43,1.58,744.75,1.23c115.02-1.81,230.77-4.3,346.19-2.87,54.06.66,258.84,17.4,295.15-2.56,2.79-1.53,2.99-5.4,4.66-6.46,11-6.92,177.61.77,204.69,1.31,27.62.56,69.31,3.06,95.38.08,1.43-.17,22.41-13.18,24.79-14.89,2.97-2.13,8.89-7.5,10.77-10.37,7.35-11.2,13-52.28,8.48-64.04-2.01-5.21-9.17-10.75-10.55-15.93-4.28-16.15,11.23-25.45,14.67-39.57,10.73-44.07.8-102.16.48-147.28-1.72-241.8-6.65-482.37-7.72-724.29-.7-158.11,3.52-316.68,7.93-475.45.35-12.5-2.58-82.03,2.98-85.57,9.51-2.13,27.87-3.71,35.97-7.64,4.76-2.3,5.59-8.56,7.47-8.85,9.11-1.41,19.48,18.04,30.08,10.77-5.59,228.74-12.41,456.64-10.66,685.87.64,82.7,4.72,166.93,5.39,249.62-8.01-1.55-4.65,3.89-5.65,8.75-3.05,14.93-17.46,63.14-14.35,73.25,2.89,9.37,14.08,19.21,22.64,23.7-.68,156.13,5.95,313.8,7.93,470.38-8.08-1.47-5.01,4.05-5.29,9.13-1.74,31.58,5.26,104.5,5.26,104.5l.18,23.05"/>
  <path class="cls-1" d="M3622.79,1279.68c-3.11-10.11,11.29-58.32,14.35-73.25,1-4.86-2.36-10.3,5.65-8.75.23,27.38-3.3,35.99-7.27,60.08-4.01,24.3,9.98,31.28,9.92,45.62-8.56-4.49-19.75-14.32-22.64-23.7Z"/>
  <path class="cls-1" d="M3637.5,1876.82c5.4-31.09,8.83-62.35,10.57-93.93.28-5.08-2.79-10.6,5.29-9.13.47,37.83-.33,75.8-.03,113.63"/>
  <g>
    <path class="cls-2" d="M1087.11,1855.4c-115.02-1.81-230.77-4.3-346.19-2.87-54.06.66-258.84,17.4-295.15-2.56-2.79-1.53-2.99-5.4-4.66-6.46-11-6.92-177.61.77-204.69,1.31-27.62.56-69.31,3.06-95.38.08-1.43-.17-22.41-13.18-24.79-14.89-2.97-2.13-8.89-7.5-10.77-10.37-7.35-11.2-13-52.28-8.48-64.04,2.01-5.21,9.17-10.75,10.55-15.93,4.28-16.15-11.23-25.45-14.67-39.57-10.73-44.07-.8-102.16-.48-147.28,1.72-241.8,6.65-482.37,7.72-724.29.7-158.11-3.52-316.68-7.93-475.45-.35-12.5,2.58-82.03-2.98-85.57-9.51-2.13-27.87-3.71-35.97-7.64-4.76-2.3-5.59-8.56-7.47-8.85-9.11-1.41-19.48,18.04-30.08,10.77,5.59,228.74,12.41,456.64,10.66,685.87-.64,82.7-4.72,166.93-5.39,249.62-.23,27.38,3.3,35.99,7.27,60.08,4.01,24.3-9.98,31.28-9.92,45.62.68,156.13-5.95,313.8-7.93,470.38-.47,37.83.33,75.8.03,113.63l15.83-10.57c22.09,11.43,42.59,26.65,64.62,37.11,47.34-1.07,95.58-.09,142.79-2.78,30-1.71,126.68-17.86,147.37-12.55,15.06,3.87,36.58,18.99,53.36,20.64,87.32,8.59,196.97-2.69,285.56-5.39,183.05-5.59,365.28-.38,548.31-2.67.66-4.29,272.96-3.64,563.62-2v-54.22c-349.1.33-721.11,1.21-744.75.84Z"/>
    <path class="cls-3" d="M52.65,240.65c18.13,2.77,39.04,14.56,57.44,8.56,9.27-3.03,40.39-26.08,48.3-33.61,11.38-10.84,18.48-24.26,29.03-35.68-27.51,2.31-55.75.81-83.22,2.64-20.88,1.39-56.11,6.9-59.47,31.67,22.1,3.56,40.59,1.16,62.01-.09,2.89-.17,10.02-1.7,9.31,2.72-12.9,1.34-26.04,3.84-38.39,7.87-3.19,1.04-30.32,10.19-25.01,15.92Z"/>
    <path class="cls-2" d="M12.96,210.34c2.79,2.15,21.15,4.94,24.92,4.06,3.24-.77.93-4.06,1.56-5.43,7.85-17.16,16.73-21.02,33.82-28.27,3.64-1.54,15.62-3.04,16.14-3.67,1.13-1.36-.32-11.7.86-16.34,11.16-43.57,41.63-39.67,75.19-51.64,22.87-8.16,47.44-22.67,69.61-33.45,1.55-.75,15.65-10.03,11.56-.5-2.03,4.72-8.1,4.47-11.64,7.02-1.11.8-3.63.16-2.63,3.93.5,1.75,1.72,1.07,2.63,1.35,7.02,2.14,42.22.17,52.85,0,7.91-.13,15.88.15,23.78,0,34.69-.67,69.45-2.88,104.51-2.77,62.96.2,147.97,30.21,209,22.65,15.7-1.94,31.26-.64,48.78,0,15.26.56,31.24,3.92,44.18,5.65,52.98,7.08,142.45,91.21,197.45,89.08,58.3-2.25,1537.14-177.45,1786.2-176.28,0,0-1775.5-5.02-1778.5-4.56-65.34,10.12-161.16-4.09-229.63-5.23-128.85-2.14-258.68.72-387.24,1.44-3.97,5.81-18.99,25.15-25.08,25.12-4.92-.02-32.03-20.94-40.26-23.23-19.6-5.47-43.16-1.33-62.83-3.24C146.83,12.98,109.05,3.82,77.48.47,54.42-1.96,28.95,5.96,5.11,2.86L0,44.93c6.68,1.68,14.49,1.96,20.93,4.16,7.02,2.4,30.73,14.52,35.68,14.52h96.46l-3.92,5.29-89.74,2.8c-11.29,10.37-45.69,8.96-53.25,15.48-2.87,2.48-2.37,20.79-1.21,28.09,3.9,24.39,3.7,55.16,5.41,80.47.3,4.48-1.67,11.31,2.6,14.59Z"/>
    <path class="cls-2" d="M3526.51,1737.9c-.4-6.19,12.15-28.71,15.08-37.58,21-63.61,6.68-207.06,5.94-279.24-1.84-179.89,6.52-371.35-2.42-549.87-.37-7.57-1.91-34.33-3.29-38.99-2.22-7.5-23.34-19.63-23.33-26.96,0-5.89,17.88-17.99,21.44-26.23,6.91-16.02,1.85-99.88,2.32-124.51,2.33-120.9,6.97-245,4.96-364.64-.37-21.73-36.2-29.95-48.3-43.68-5.07-5.74-27.04-48.46-27.9-55.34-.62-5.01.4-10.74-.01-15.88,23.91-2.88,46.54,6.58,70.26,5.4,3.55-.18,5.5-2.59,6.38-2.74,14.85-28.42-68.68-53.17-74.01-47.59-1.66,1.75,4.26,14.38-6.28,10.28-10.66-4.13-10.97-28.09-39.94-31.41-53.35-6.11-119.77,2.05-174.52-2.75-168.38,15.54-342.57-4.86-510.02,5.28-11.03.67-1810.99.28-1822.02-.39-167.44-10.14-631.19-8.64-684.54-2.54-28.97,3.32-29.29,27.28-39.94,31.41-10.55,4.09-4.63-8.54-6.28-10.28-5.32-5.58-88.86,19.17-74.01,47.59.89.15,2.84,2.56,6.38,2.74,23.72,1.18,46.35-8.28,70.26-5.4-.41,5.13.61,10.87-.01,15.88-.86,6.87-22.83,49.6-27.9,55.34-12.1,13.73-47.92,21.95-48.3,43.68-2.01,119.64,2.63,243.74,4.96,364.64.47,24.63-4.59,108.49,2.32,124.51,3.56,8.23,21.44,20.34,21.44,26.23.01,7.33-21.1,19.47-23.33,26.96-1.38,4.67-2.92,31.43-3.29,38.99-8.94,178.52-.59,369.99-2.42,549.87-.74,72.17-15.06,215.63,5.94,279.24,2.93,8.87,15.49,31.39,15.08,37.58-.68,10.32-15.78,20.45-17.93,29.79-5.73,24.76,7.88,46.69,31.17,54.94,4.84,1.72,26.03,6.74,30.45,6.7,9.74-.08,17.62-.83,21.18.11,4.55,1.19,22.56.08,28.92-.21,67.91-3.04,143.61-14.32,211.55-8.01,26.75,2.49,58.12,16.44,87,18.7,74.41,5.83,162.26-4.68,237.8-5.51,138.74-1.52,277.29,4.88,415.29,5.15,6.47.02,326.97-1.37,649.22-2.47v.39c322.26,1.1,642.76,2.49,649.22,2.47,138-.26,276.55-6.66,415.29-5.15,75.54.82,163.39,11.34,237.8,5.51,28.88-2.26,60.25-16.22,87-18.7,67.94-6.31,143.64,4.98,211.55,8.01,6.36.29,24.38,1.4,28.92.21,3.57-.94-1.44-10.41,5.36-8.08,4.19,1.43,6.08,7.89,15.82,7.97,4.41.04,25.61-4.98,30.45-6.7,23.29-8.25,36.89-30.18,31.17-54.94-2.15-9.34-17.25-19.47-17.93-29.79Z"/>
  </g>
  <path class="cls-2" d="M2970.13,16.33c128.85-2.14,258.68.72,387.24,1.44,3.97,5.81,18.99,25.15,25.08,25.12,4.92-.02,32.03-20.94,40.26-23.23,19.6-5.47,43.16-1.33,62.83-3.24,31.36-3.05,127.28,1.94,158.85-1.4,23.06-2.43,13.26,202.1,0,200.78-7.85-17.16-36.83-27.46-53.92-34.71-3.64-1.54-15.62-3.04-16.14-3.67-1.13-1.36.32-11.7-.86-16.34-11.16-43.57-41.63-39.67-75.19-51.64-22.87-8.16-54.57-21.69-69.53-21.64-14.96.05-51.44-4.62-54.52-5.34-5.37-1.26-26.09-2.06-22.11,5.34-34.69-.67-69.45-2.88-104.51-2.77-62.96.2-147.68,10.38-208.71,2.83-15.7-1.94-29.91-16.68-47.43-16.04-15.26.56-31.95,14.37-44.88,16.09-52.98,7.08-138.14,4.78-193.14,2.66-58.3-2.25-106.78-4.5-129.44-66.12"/>
  <path class="cls-3" d="M3611.07,241.04c-18.13,2.77-39.04,14.56-57.44,8.56-9.27-3.03-40.39-26.08-48.3-33.61-11.38-10.84-18.48-24.26-29.03-35.68,27.51,2.31,55.75.81,83.22,2.64,20.88,1.39,56.11,6.9,59.47,31.67-22.1,3.56-40.59,1.16-62.01-.09-2.89-.17-10.02-1.7-9.31,2.72,12.9,1.34,26.04,3.84,38.39,7.87,3.19,1.04,30.32,10.19,25.01,15.92Z"/>
  <rect class="cls-1" x="456.16" y="87.79" width="2552.06" height="15.91"/>
</svg>