<?xml version="1.0" encoding="UTF-8"?>
<svg xmlns="http://www.w3.org/2000/svg" xmlns:xlink="http://www.w3.org/1999/xlink" viewBox="0 0 2177.77 1293.66">
  <defs>
    <style>
      .cls-1 {
        fill: url(#radial-gradient-2);
      }

      .cls-1, .cls-2, .cls-3, .cls-4, .cls-5, .cls-6, .cls-7, .cls-8, .cls-9, .cls-10 {
        mix-blend-mode: screen;
      }

      .cls-11 {
        fill: url(#linear-gradient-9);
      }

      .cls-12 {
        fill: url(#linear-gradient-4);
      }

      .cls-13 {
        fill: url(#linear-gradient-3);
      }

      .cls-14 {
        fill: url(#linear-gradient-2);
      }

      .cls-2 {
        fill: url(#linear-gradient-13);
      }

      .cls-2, .cls-3, .cls-4, .cls-8, .cls-9, .cls-10 {
        opacity: .5;
      }

      .cls-3 {
        fill: url(#linear-gradient-15);
      }

      .cls-4 {
        fill: url(#linear-gradient-14);
      }

      .cls-5 {
        fill: url(#linear-gradient-16);
      }

      .cls-5, .cls-7 {
        opacity: .35;
      }

      .cls-15 {
        fill: url(#linear-gradient);
      }

      .cls-16 {
        isolation: isolate;
      }

      .cls-6 {
        fill: url(#radial-gradient);
      }

      .cls-17 {
        fill: #fff2c6;
      }

      .cls-18, .cls-19 {
        fill: #0f2d29;
      }

      .cls-20 {
        fill: url(#linear-gradient-10);
      }

      .cls-21 {
        fill: url(#linear-gradient-11);
      }

      .cls-22 {
        fill: url(#linear-gradient-12);
      }

      .cls-23 {
        fill: #8bcbb2;
      }

      .cls-7 {
        fill: url(#linear-gradient-8);
      }

      .cls-8 {
        fill: url(#linear-gradient-7);
      }

      .cls-9 {
        fill: url(#linear-gradient-5);
      }

      .cls-10 {
        fill: url(#linear-gradient-6);
      }

      .cls-19 {
        stroke: #8bcbb2;
        stroke-miterlimit: 10;
        stroke-width: 3.88px;
      }
    </style>
    <linearGradient id="linear-gradient" x1="854.7" y1="4.46" x2="885.85" y2="4.46" gradientTransform="translate(392.6 107.79) rotate(.5) scale(1.34 .95)" gradientUnits="userSpaceOnUse">
      <stop offset="0" stop-color="#303133"/>
      <stop offset=".16" stop-color="#43514c"/>
      <stop offset=".42" stop-color="#618172"/>
      <stop offset=".64" stop-color="#77a48e"/>
      <stop offset=".83" stop-color="#84ba9f"/>
      <stop offset=".95" stop-color="#89c2a6"/>
    </linearGradient>
    <linearGradient id="linear-gradient-2" x1="870.28" y1="17.99" x2="870.28" y2="-9.07" gradientTransform="translate(392.6 107.79) rotate(.5) scale(1.34 .95)" gradientUnits="userSpaceOnUse">
      <stop offset="0" stop-color="#83f8d3"/>
      <stop offset=".58" stop-color="#96f9d8"/>
      <stop offset="1" stop-color="#9efadb"/>
    </linearGradient>
    <linearGradient id="linear-gradient-3" x1="854.87" y1="-6.36" x2="870.33" y2="-6.36" gradientTransform="translate(392.6 107.79) rotate(.5) scale(1.34 .95)" gradientUnits="userSpaceOnUse">
      <stop offset=".01" stop-color="#91fab0"/>
      <stop offset=".32" stop-color="#8bf7af"/>
      <stop offset=".74" stop-color="#7aefaf"/>
      <stop offset="1" stop-color="#6ce9af"/>
    </linearGradient>
    <linearGradient id="linear-gradient-4" x1="854.87" y1="15.28" x2="870.28" y2="15.28" gradientTransform="translate(392.6 107.79) rotate(.5) scale(1.34 .95)" gradientUnits="userSpaceOnUse">
      <stop offset="0" stop-color="#00c563"/>
      <stop offset=".16" stop-color="#07c768"/>
      <stop offset=".41" stop-color="#1dd077"/>
      <stop offset=".72" stop-color="#40dd8f"/>
      <stop offset="1" stop-color="#67ecaa"/>
    </linearGradient>
    <linearGradient id="linear-gradient-5" x1="869.82" y1="21.65" x2="870.28" y2="21.65" gradientTransform="translate(392.6 107.79) rotate(.5) scale(1.34 .95)" gradientUnits="userSpaceOnUse">
      <stop offset="0" stop-color="#f7dcb1"/>
      <stop offset=".13" stop-color="#efd4a9"/>
      <stop offset=".34" stop-color="#d9c096"/>
      <stop offset=".59" stop-color="#b69e76"/>
      <stop offset=".87" stop-color="#86714a"/>
      <stop offset="1" stop-color="#6e5a34"/>
    </linearGradient>
    <linearGradient id="linear-gradient-6" x1="870.02" y1="-12.88" x2="870.33" y2="-12.88" xlink:href="#linear-gradient-5"/>
    <linearGradient id="linear-gradient-7" x1="854.87" y1="4.27" x2="861.05" y2="4.27" gradientTransform="translate(392.6 107.79) rotate(.5) scale(1.34 .95)" xlink:href="#linear-gradient-5"/>
    <linearGradient id="linear-gradient-8" x1="-4209.96" y1="2174.56" x2="-4191.14" y2="2174.56" gradientTransform="translate(-4072.53 2123.12) rotate(-179.5) scale(1.34 .95)" gradientUnits="userSpaceOnUse">
      <stop offset=".55" stop-color="#b8fad8"/>
      <stop offset=".6" stop-color="#b3efcd"/>
      <stop offset=".7" stop-color="#a6d3b0"/>
      <stop offset=".82" stop-color="#91a581"/>
      <stop offset=".97" stop-color="#756741"/>
      <stop offset=".99" stop-color="#705c36"/>
    </linearGradient>
    <radialGradient id="radial-gradient" cx="3720.68" cy="-1685.81" fx="3720.68" fy="-1685.81" r="13.91" gradientTransform="translate(-766.65 836.52) rotate(.5) scale(.62 .44)" gradientUnits="userSpaceOnUse">
      <stop offset=".01" stop-color="#fff"/>
      <stop offset=".08" stop-color="#e9e9e9"/>
      <stop offset=".34" stop-color="#979797"/>
      <stop offset=".57" stop-color="#565656"/>
      <stop offset=".77" stop-color="#272727"/>
      <stop offset=".92" stop-color="#0a0a0a"/>
      <stop offset="1" stop-color="#000"/>
    </radialGradient>
    <linearGradient id="linear-gradient-9" x1="167.25" y1="19" x2="198.41" y2="19" xlink:href="#linear-gradient"/>
    <linearGradient id="linear-gradient-10" x1="182.83" y1="32.53" x2="182.83" y2="5.47" xlink:href="#linear-gradient-2"/>
    <linearGradient id="linear-gradient-11" x1="167.43" y1="8.18" x2="182.88" y2="8.18" xlink:href="#linear-gradient-3"/>
    <linearGradient id="linear-gradient-12" x1="167.43" y1="29.82" x2="182.83" y2="29.82" xlink:href="#linear-gradient-4"/>
    <linearGradient id="linear-gradient-13" x1="182.38" y1="36.19" x2="182.83" y2="36.19" xlink:href="#linear-gradient-5"/>
    <linearGradient id="linear-gradient-14" x1="182.57" y1="1.66" x2="182.88" y2="1.66" xlink:href="#linear-gradient-5"/>
    <linearGradient id="linear-gradient-15" x1="167.43" y1="18.81" x2="173.6" y2="18.81" gradientTransform="translate(392.6 107.79) rotate(.5) scale(1.34 .95)" xlink:href="#linear-gradient-5"/>
    <linearGradient id="linear-gradient-16" x1="-3522.52" y1="2160.02" x2="-3503.69" y2="2160.02" xlink:href="#linear-gradient-8"/>
    <radialGradient id="radial-gradient-2" cx="2244.69" cy="-1654.59" fx="2244.69" fy="-1654.59" r="13.91" xlink:href="#radial-gradient"/>
  </defs>
  <g class="cls-16">
    <g id="Layer_1" data-name="Layer 1">
      <g>
        <path class="cls-18" d="M2103.58,503.95c-29.77-41.61-79.13-78.39-130.72-82.84,8.34-60.54-34.01-114.34-88.75-133.03-40.9-13.96-116.51,13.47-151.4-15.61-21.81-18.18-24.68-141.3-37.12-100.03-24.18-28.77-42.84-9.19-81.66-13.24-4.21-.44-18.4-45.34-20.7-46.7-.84-.49-9.67-12.09-12.84-14.75-18.32-15.35-43.23-12.88-54.79-36-3.59-7.18-5.03-15.68-8.28-23.15-8.95-20.58-22.87-33.69-45.05-38.39L715.43,0c-23.25,2.62-38.03,18.79-46.78,39.63-6.95,16.55-6.25,31.95-24.87,40.87-12.96,6.21-24.59,6.48-36.97,16.53-3.77,3.06-12.6,14.53-15.81,15.5-6.52,1.97-21.34,8.2-29.49,9.04-39.48,4.04-53.19,35.8-78.02,64.73-13.02-31.75-42.3,26.84-57.07,46.06-52.13,67.83-150,23.81-206.07,106.19-16.19,23.78-22.92,52.83-20.72,81.17-76.21,11.29-143.55,76.37-163.05,151.45-9.14,35.19-9.12,78.29,0,113.43,14.63,56.38,53.44,103.5,106.04,126.78-30.31,47-32.42,108.8-11.05,160.07,36.4,87.33,133.09,134.72,223.87,127.94,11.91,48.88,52.83,91.22,94.22,116.94,100.23,62.29,234.92,73.62,348.16,47.94,33.54-7.6,66.18-20.08,100.93-22.15,69.26-4.12,330.93-6.56,393.11,1.78,32.41,4.35,65.8,16.96,98.22,23.41,89.62,17.84,194.52,13.2,279.71-21.39,65.4-26.55,130.88-75.27,152.5-146.4,120.14,6.93,242.35-79.74,233.37-211.47-1.88-27.59-12.52-54.25-26.59-77.44,119.11-48.25,147.18-205.11,74.53-306.66ZM620.12,117.68c27.17-9.85,44.4-10.62,59.04-39.39,8.47-16.65,10.66-44.26,33.42-46.67l768.42-.06c5.32.19,13.17,2.93,16.92,6.58,7.79,7.59,9.16,20.8,13.03,29.98,5.97,14.17,15.6,29.35,29.02,37.48,9.92,6.01,24.81,8.01,32.6,12.85,6.04,3.76-3.98,4.18-8.22,6.14-28.47,13.14-53.18,42.04-60.64,72.39-3.83,15.59.58,32.22-21.24,34.64l-783.4-.17c-23.07-2.76-18.21-16.48-22.68-33.22-8.9-33.33-34.04-62.28-66.48-74.9,1.63-2.47,7.4-4.64,10.22-5.66ZM2050.25,783.8c-9.43,4.19-35.83,7.45-29.85,22.81,2.46,6.33,12.25,16.31,16.35,23.08,71.66,118.27-42.3,234.23-163.2,241.12-12.73.73-28.35-2.22-39.44-1.52-15.89,1-15.07,18.68-19.59,30.39-48.04,124.49-238.12,158.13-356.39,146.99-40.53-3.82-78.48-16.6-117.9-24.82-87.12-18.18-414.92-17.88-500.61,0-72.54,15.13-121.39,30.05-198.6,26.4-93.12-4.41-235.63-52.7-272.26-145.96-4.82-12.28-4.42-32.72-21.33-33.19-11.54-.32-25.26,2.31-38.11,1.71-120.83-5.62-238.82-124.2-165.65-242.06,6.99-11.26,28.04-26.93,9.85-37.04-11.67-6.49-27.29-8.63-41.04-16.58-130.02-75.26-93.88-279.7,46.24-320.98,9.88-2.91,41.79-6.37,46.48-11.2,8.18-8.43,2.2-17.6,1.52-27.12-2.71-37.86,17.44-70.21,49.72-89.16,39.47-23.17,87.27-17.84,129.29-37.63,65.02-30.61,76.16-103,137.93-135.86,38.17-20.31,81.92-8.53,108.16,24.44,16.5,20.74,11.51,32.48,18.72,53.68,5.46,16.06,24.78,30.48,42.21,30.47l800.2-.23c16.99-2.86,32-14.51,37.02-31.09,6.27-20.69,1.64-29.93,15.93-50.43,24.52-35.19,68.6-47.29,107.24-26.85,61.19,32.36,74.67,105.96,137.91,135.88,41.12,19.45,89.16,13.89,128.35,35.55,25.65,14.18,50.79,43.41,53.74,73.2,1.22,12.35-2.82,27.21-1.57,37.64.3,2.5,1.74,6.09,3.59,7.73,5.27,4.68,32.68,7.57,42.12,10.26,149.76,42.7,181.34,264.44,32.99,330.35Z"/>
        <path class="cls-18" d="M665.81,207.91c1.44,5.98,2.39,12.41,3.31,18.63,1.15,7.81,2.15,14.56,3.93,19.07,1.38,3.47,8.86,3.99,14.8,3.82,20.17.03,314.6.45,546.42.45,151.56,0,276.37-.18,280.23-.76,8.22-1.24,9.8-14.04,11.34-26.42.89-7.15,1.81-14.55,3.8-20.1,12.01-33.43,23.91-53.15,43.91-72.77,2.32-2.27,5-3.63,6.96-4.62,2.2-1.11,4.47-2.25,4.28-5.31-.19-3.13-2.91-3.96-4.53-4.46-7.27-2.22-14.01-7.49-23.26-18.16-13.98-16.13-21.85-40.03-25.29-52.84-.5-1.86-.91-3.47-1.28-4.92-1.81-7.12-1.54,20.43-6.87,11.89l-6.25-12.79c-2.84-4.56-7.64-23.39-27.33-22.73-2.64.09-4.93.16-6.1.12l-781.62-.92h-.17c-16.04,1.08-19.92,13.69-25.4,35.89-1.73,7.02-7.69,23.16-10.8,29.27-9.12,17.9-27.09,32.26-49.3,39.4-.47.15-.79.26-.94.32l-5.73,2.24,4.95,4.13c11.78,9.83,40.34,37.46,50.96,81.58Z"/>
        <path class="cls-18" d="M2088.48,481.82c-22.58-27.2-81.03-47.29-93.43-48.52-11.8-1.17-20.64-4.42-24.25-8.91-1.53-1.9,23.99,11.4,24.25,8.91,7.37-70.73-49.64-112.08-80.81-128.12-15.43-7.93-33.78-11.79-49.97-15.19-4.38-.92-8.51-1.79-12.48-2.71-42.47-9.85-74.18-18.54-95.44-40.84-16.9-17.73-29.63-34.98-41.93-51.66-3.8-5.15-7.39-10.01-11.11-14.91-16.27-21.42-35.63-40.26-42.79-45.09-7.13-4.81-30.06-13.79-48.47-13.81h-.04c-18.55,0-45.45,23.64-50.73,23.34-59.33-3.36-98.78,1.44-19.19,41.44,54.87,27.58-84.52-50-86.37-42.59-3.61,14.42,59.71,99.05,40.74,101.21l-777.79,2.34c-64.93-3.86-67.81-31.2-69.72-49.3-.37-3.5-.69-6.52-1.39-9.14-8.29-30.83-33.54-58.64-58.73-64.68-20.37-4.89-29.88-1.87-37.53.55-1.41.45-2.74.87-4.08,1.22-29.04,7.69-69.94,61.77-97,97.55-8.52,11.26-15.24,20.15-19.04,24.1-25.94,27-60.64,33.06-94.21,38.91-38.16,6.66-77.62,13.54-103.44,51.35-10.96,16.05-44.07,29.41-45.28,46.52-.5,7.07,22,16.78,16.53,14.35-39.09-17.39-16.76,21.73-19.45,26.08-2.74,4.43,9.12,8.86-5.7,12.94-13.34,3.67-25.95,7.14-33.02,10.83-48.56,25.31-121.32,65.08-135.16,115.97-10.58,38.9,16.35,141.48,33.69,182.72,22.66,53.9,79.38,51.98,105.15,62.57,13.56,5.57-37.87,24.01-37,30.8.82,6.37,1.91,53.29-4.87,64.49-15.46,25.57,14.11,38.72,34.08,98.18,21.95,65.37,123.76,66.22,145.07,76.04,38.12,17.58,31.85,9.62,56.66,9.17,13.99-.25,19.94,32.2,23.83,35.35,2.6,2.11,8.9,18.29,13.41,26.51,24.74,45.15,78.38,111.94,300.91,111.93,28.53,0,65.7-1.85,99.81-5.89,14.79-1.75,45.83-17.31,67.03-22.09,26.61-6,44.81-5.09,63.58-6.13,64.24-3.58,329-5.61,389.83,2.31,24.76,3.22,75.52,18.33,105.04,24.17,8.16,1.61,51.06,20.37,57.85,21.68,36.03,6.94,47.38-11.23,82.21-11.23,53.55,0,58.76.64,108.58-15.72,36.61-12.02,81.84-36.05,109.47-59.91,28.56-24.67,48.35-42.51,51.91-66.95,1.38-9.47,16.04-32.2,19.19-34.59,1.72-.93,6.4-4.32,14.67-4.46,7.57-.13,13.11,10.67,21.44,10.04,40.98-3.08,91.79-23.12,126.4-52.44,40.49-34.31,76.43-108.66,73.36-152.86-.88-12.63-9.25-31.28-19.19-54.67-3.99-9.39-25.38-16.77-30.66-25.89-4.52-7.79,49.95-9.09,49.85-12.05,2.23-1.86,13.99-21.27,23.7-25.66,8.98-4.07,5.02-6.34,14.67-11.16,28.73-14.36,25.38-30.95,35.77-51.49,13.04-25.8,14.38-73.5,15.18-99.83.93-30.36-26.71-68.66-73.55-125.09Z"/>
      </g>
      <g>
        <path class="cls-18" d="M2086.01,509.43c-22.52-26.73-80.83-45.94-91.96-47.03-11.73-1.15-30.16-5.33-28.78-18.37,7.55-71.34-26.05-94.85-53.38-108.7-19.21-9.74-43.07-13.13-62.08-17.47-41.09-9.39-75-18.2-97.26-41.21-22.26-23.01-37.42-45.27-53.48-66.11-16.06-20.84-35.31-39.34-42.31-43.99-7-4.65-29.29-13.17-47.13-13.2-17.84-.03-45.89,19.07-48.96,22.24-18.82,19.42-15.43,30.58-22.58,58.74-3.68,14.46-23.6,38.92-44.4,41.14l-781.41,2.31c-79.89-4.65-69.82-44.37-74.06-59.91-8.44-30.94-33.5-56.47-56.91-62-23.42-5.53-31.54-.58-40.43,1.74-37.64,9.82-99.52,103.49-115.24,119.62-56.61,58.07-150.42,20-198.21,88.95-8.59,12.39-16.03,27.38-17.43,46.69-1.12,15.52,7.13,28.94,1.38,38.1-5.75,9.16-55.98,17.29-72.29,25.67-46.11,23.68-81.55,63.73-95.75,115.18-9.01,32.64-9.1,75.41,10.4,121.12,34.97,81.94,109.27,73.51,112.28,96.59,3.01,23.08-59.13,63.79-30.43,147.99,18.41,54,59.93,86.83,94.08,102.34,60.29,27.39,117.98,9.32,130.53,19.31,20.53,16.35,60.67,206.26,412.54,165.19,33.41-3.9,95.56-22.19,129.64-24.06,67.93-3.73,324.53-5.64,385.49,2.19,31.78,4.08,66.25,9.12,98.03,15.15,87.87,16.68,192.88,16.84,278.03-10.71,73.99-23.94,140.53-76.52,147.85-125.92,1.47-9.93,7.47-18.03,11.4-20.96,3.21-2.39,25.31-1.13,45.43-2.62,78.89-5.84,185.44-74.55,178.73-169.42-.93-13.14-2.75-26.64-12.34-48.87-9.09-21.09-29.06-47.62-26.06-52.21,2.12-3.25,29.54-13.89,53.18-25.53,48.13-23.69,76.54-90.81,78.08-140.46,1.48-47.58-22.43-93.8-54.21-131.51Z"/>
        <path class="cls-23" d="M1610.95,113.93c2.37,1.37,14.36-.09,18.7.35,40,4.1,72.6,34.79,97.52,63.93,12.81-41.8,56.88-63.35,96.25-39.88,48.17,28.72,32.84,108.33-20.95,97.08-13.01-2.72-30.55-20.45-19.06-32.94,11.42-12.41,35.99,18.53,37.54-11.27,1.64-31.58-39.91-41.19-58.35-15.61-19.49,27.04-1.52,58.81,20.94,77.21,35.95,29.45,84.96,24.79,127.1,38.92,56.4,18.92,100.03,73.41,91.45,134.71,53.16,4.51,104.02,41.75,134.69,83.89,74.86,102.84,45.93,261.68-76.79,310.54,14.5,23.48,25.46,50.48,27.4,78.42,9.25,133.4-116.67,221.16-240.46,214.14-22.27,72.03-89.74,121.36-157.13,148.25-87.78,35.03-195.85,39.72-288.2,21.66-33.4-6.53-67.8-19.3-101.2-23.7-64.07-8.44-333.68-5.98-405.04-1.8-35.8,2.09-69.43,14.73-103.99,22.43-116.67,26-255.45,14.53-358.73-48.55-42.65-26.05-84.81-68.92-97.08-118.42-93.54,6.87-193.15-41.12-230.66-129.55-22.02-51.92-19.85-114.5,11.38-162.1-54.2-23.57-94.18-71.29-109.25-128.38-9.39-35.58-9.42-79.23,0-114.87,20.1-76.04,89.48-141.94,168-153.37-2.26-28.71,4.67-58.12,21.35-82.2,57.77-83.42,158.61-38.84,212.32-107.53,15.21-19.46,17.92-46.38-.67-64.74-24.11-23.81-64.26,2.27-52.98,28.61,7.37,17.2,26.12-11.85,37.61,6.55,8.56,13.7-8.37,27.94-21.61,30.02-35.18,5.52-54.45-27.99-46.91-59.07,5.67-23.36,27.52-44.83,51.87-47.13,36.57-3.46,59.67,16.52,73.09,48.67,25.59-29.3,58.52-59.65,99.2-63.74,8.39-.84,23.25,1.5,29.97-.5,3.31-.98,12.4-12.59,16.29-15.7,12.76-10.17,24.75-10.45,38.1-16.74,19.19-9.03,18.46-24.63,25.63-41.39,9.02-21.11,24.25-37.48,48.2-40.13l779.8.22c22.85,4.76,37.19,18.04,46.41,38.88,3.35,7.57,4.83,16.18,8.54,23.45,11.92,23.4,37.58,20.91,56.46,36.45,3.27,2.69,12.36,14.43,13.23,14.93ZM1497.4,38.63c-3.76-3.7-11.62-6.48-16.94-6.66l-769.32.06c-22.8,2.44-24.98,30.39-33.46,47.26-14.66,29.13-31.91,29.91-59.11,39.89-2.82,1.03-8.59,3.24-10.23,5.73,32.48,12.78,57.65,42.1,66.56,75.85,4.48,16.95-.39,30.84,22.71,33.64l784.32.17c21.85-2.45,17.43-19.29,21.27-35.08,7.47-30.73,32.21-60,60.71-73.31,4.24-1.98,14.28-2.4,8.23-6.21-7.79-4.91-22.7-6.93-32.63-13.02-13.44-8.23-23.08-23.6-29.06-37.95-3.87-9.3-5.24-22.68-13.04-30.36ZM1975.18,448.8c-1.85-1.66-3.29-5.3-3.59-7.83-1.25-10.57,2.8-25.61,1.58-38.12-2.95-30.17-28.12-59.77-53.8-74.13-39.24-21.94-87.33-16.3-128.5-36-63.31-30.29-76.81-104.83-138.07-137.6-38.69-20.69-82.82-8.44-107.37,27.19-14.3,20.76-9.67,30.11-15.94,51.06-5.02,16.78-20.05,28.58-37.06,31.48l-801.14.23c-17.45,0-36.79-14.59-42.26-30.85-7.21-21.47-2.22-33.36-18.74-54.36-26.27-33.4-70.07-45.32-108.29-24.75-61.84,33.28-73,106.58-138.09,137.58-42.08,20.04-89.93,14.64-129.45,38.1-32.32,19.19-52.49,51.95-49.78,90.29.68,9.64,6.67,18.93-1.52,27.46-4.7,4.89-36.65,8.4-46.54,11.35-140.28,41.8-176.47,248.83-46.29,325.04,13.76,8.06,29.4,10.22,41.09,16.79,18.22,10.24-2.86,26.1-9.86,37.51-73.26,119.35,44.87,239.43,165.84,245.12,12.87.61,26.6-2.06,38.16-1.74,16.92.48,16.52,21.18,21.35,33.61,36.67,94.44,179.35,143.34,272.58,147.8,77.3,3.7,126.21-11.41,198.83-26.73,85.79-18.1,413.97-18.41,501.2,0,39.47,8.33,77.46,21.27,118.04,25.14,118.41,11.28,308.72-22.78,356.81-148.85,4.53-11.86,3.7-29.76,19.61-30.78,11.1-.71,26.74,2.27,39.49,1.53,121.04-6.98,235.13-124.41,163.39-244.17-4.1-6.85-13.9-16.96-16.36-23.37-5.99-15.55,20.45-18.86,29.89-23.1,148.53-66.74,116.91-291.28-33.03-334.52-9.45-2.72-36.89-5.65-42.17-10.39Z"/>
        <path class="cls-23" d="M227.92,210.76c14.76-4.23,40.3,6.46,51.42,16.48,20.67,18.62,30.65,49.11-10.26,40.71-16.18-3.32-32.22-15.53-40.42-29.64-3.81-6.56-12.18-24.26-.74-27.54Z"/>
        <path class="cls-23" d="M1947.75,212.35c9.23,8.78-8.47,36.04-16.5,42.88-16.67,14.21-67.17,27.15-49.43-9.82,5.03-10.48,20.15-23.92,30.71-28.69,7.02-3.17,29.32-9.97,35.22-4.36Z"/>
        <g>
          <path class="cls-18" d="M1488.19,46.8c5.73,7.65,5.63,9.66,8.37,18.16,4.17,12.91,12.02,30.61,24.59,42.69,7.88,7.57,14.89,12.85,23.21,14.97,5.92,1.51-1.63,1.64-7.43,6.38-20,16.34-31.27,32.84-42.23,58.25-5.29,12.26-2.92,33.73-12.04,34.87-9.13,1.15-779.53.23-779.53.23-4.21.1-10.97-.45-11.42-1.39-2.78-5.84-3.57-18.5-6.66-29.19-8.51-29.43-29.75-52.13-49.18-65.63,1.8-.59,33.8-7.69,48.94-32.42,2.98-4.88,8.74-17.76,10.49-23.67,5.23-17.64,8.51-25.46,21.42-26.18l737.42.73c5.08.16,31.17-1.66,34.07,2.22Z"/>
          <path class="cls-23" d="M1218.62,225.51c-218.71,0-496.49-.33-515.51-.35-5.6.14-12.66-.27-13.96-3-1.69-3.54-2.62-8.84-3.71-14.98-.86-4.89-1.76-9.94-3.12-14.64-10.02-34.66-36.96-56.37-48.08-64.1l-4.67-3.24,5.4-1.76c.14-.05.44-.13.89-.25,20.96-5.61,37.91-16.9,46.52-30.96,2.94-4.8,8.56-17.48,10.19-23,5.17-17.44,8.83-27.35,23.97-28.19h.16s737.42.72,737.42.72c1.11.03,3.26-.03,5.75-.1,18.58-.52,27.9-.14,30.58,3.44h0c5.03,6.71,5.88,9.52,7.59,15.12.35,1.14.73,2.4,1.2,3.86,3.25,10.06,10.67,28.84,23.86,41.52,8.73,8.39,15.09,12.52,21.95,14.27,1.53.39,4.09,1.04,4.27,3.5.18,2.4-1.97,3.3-4.04,4.17-1.85.78-4.38,1.84-6.57,3.63-18.87,15.42-30.09,30.91-41.43,57.18-1.88,4.36-2.75,10.17-3.58,15.8-1.45,9.73-2.95,19.79-10.7,20.76-3.64.46-121.39.6-264.38.6ZM703.04,219.51c7.75,0,767.74.91,779.28-.21,3.48-.44,4.65-8.34,5.79-15.99.89-5.98,1.81-12.16,3.99-17.2,11.58-26.84,23.65-43.47,43.04-59.31,1.43-1.17,2.94-2.08,4.34-2.81-7.84-3.06-14.37-8.63-20.28-14.32-14.08-13.53-21.91-33.28-25.32-43.85-.48-1.49-.88-2.79-1.23-3.95-1.6-5.25-2.27-7.44-6.63-13.28-2.78-1.94-20.22-1.45-25.98-1.29-2.69.07-4.81.13-6,.1l-737.24-.72c-10.36.6-13.32,5.71-18.79,24.16-1.77,5.96-7.62,19.15-10.79,24.34-5.2,8.49-17.81,23.53-45.03,32.06,13.26,10.14,36.28,31.59,45.58,63.73,1.44,4.99,2.41,10.43,3.25,15.23.88,4.98,1.72,9.71,2.88,12.67,1.63.36,5.62.73,9.17.65ZM693.29,218.7h0Z"/>
        </g>
        <path class="cls-23" d="M1642.41,207.11c-10.05-8.57-22.72-16.83-34.49-5.86,36.62,3.79,26.94,45-8.26,40.21-11.56-1.57-22.04-13.79-23.61-25.12-5.64-40.73,35.26-62.53,70-45.61,7.83,3.81,35.7,27.36,40.24,34.39,12.43,19.28-11.13,26.81-27.65,16.98-7.08-4.22-11.06-10.58-16.23-14.99Z"/>
        <path class="cls-23" d="M570.56,202c2.67-2.16-.62-2.64-2.14-3.19-2.29-.84-8.9-2.75-11-2.81-16.93-.45-32.92,37.81-55.48,31.19-9.47-2.78-11.85-12.39-6.72-20.55,4.01-6.38,24.09-25.54,30.66-30.26,16.86-12.11,37.65-15.57,56.39-5.12,19.87,11.08,32.03,38.16,18.5,58.66-17.69,26.81-65.59,4.82-46.07-20.17,6.19-7.93,14.15-6.37,15.87-7.75Z"/>
        <path class="cls-23" d="M293.48,334.71c18.82-1.17,40.09,17.92,47.41,34.07,24.45,53.96-38.9,30.73-54.46-1.9-5.33-11.19-10.66-31.07,7.05-32.17Z"/>
        <path class="cls-23" d="M1877.71,334.71c32.75-4.08,7.93,41.81-6.49,52.91-8.9,6.85-39.37,22.26-41.03,3.29-2.17-24.72,23.1-53.15,47.52-56.2Z"/>
        <path class="cls-23" d="M1508.79,1253.91c-34.98,0-70.63-3.43-106.82-10.3-6.82-1.29-14.52-2.79-22.72-4.39-29.66-5.78-66.56-12.96-91.43-16.15-61.09-7.84-320.46-5.71-384.98-2.17-18.84,1.04-46.48,7.17-73.2,13.11-21.3,4.73-41.42,9.2-56.27,10.93-34.25,4-65.6,5.81-94.25,5.81-223.5,0-284.81-110.27-309.66-154.95-4.52-8.14-8.1-14.56-10.71-16.65-3.91-3.11-15.01-2.91-29.06-2.66-24.92.45-62.59,1.11-100.88-16.28-21.39-9.72-73.54-39.31-95.58-104-20.06-58.84,3.42-97.08,18.95-122.39,6.8-11.09,12.18-19.84,11.36-26.15-.88-6.73-10.72-10.71-24.33-16.21-25.88-10.47-64.99-26.29-87.75-79.63-17.41-40.81-21.15-84.48-10.53-122.98,13.9-50.37,48.41-91.9,97.18-116.94,7.1-3.65,19.76-7.08,33.16-10.71,14.89-4.04,35.28-9.56,38.03-13.95,2.7-4.31,1.5-10.43.11-17.52-1.13-5.76-2.42-12.29-1.91-19.28,1.22-16.93,6.92-32.21,17.92-48.09,25.93-37.41,65.56-44.22,103.89-50.81,33.71-5.79,68.57-11.78,94.62-38.5,3.81-3.91,10.57-12.71,19.12-23.85,27.18-35.41,68.26-88.92,97.43-96.53,1.34-.35,2.68-.77,4.1-1.21,7.68-2.4,17.23-5.38,37.69-.54,25.31,5.98,50.67,33.49,58.99,64,.71,2.59,1.03,5.58,1.4,9.04,1.92,17.91,4.81,44.97,70.02,48.79l781.18-2.31c19.06-2.14,38.19-24.75,41.82-39.01,1.86-7.33,3-13.53,4.01-19,2.9-15.71,4.82-26.1,19.28-41.01,3.65-3.76,32.33-23.1,50.96-23.1h.04c18.5.03,41.53,8.91,48.69,13.67,7.19,4.78,26.64,23.42,42.98,44.62,3.74,4.85,7.34,9.66,11.16,14.76,12.36,16.51,25.14,33.58,42.12,51.12,21.36,22.07,53.2,30.67,95.86,40.42,3.98.91,8.13,1.77,12.53,2.68,16.26,3.36,34.7,7.18,50.19,15.03,31.31,15.87,62.32,41.52,54.91,111.51-.26,2.46.36,4.56,1.89,6.45,3.62,4.45,12.5,7.66,24.36,8.82,12.46,1.22,71.16,21.1,93.84,48.02,47.05,55.83,55.81,103.37,54.87,133.42-.81,26.05-8.79,55.64-21.88,81.17-10.43,20.32-28.91,47.53-57.77,61.74-9.69,4.77-19.91,9.33-28.93,13.35-9.75,4.35-20.75,9.25-22.99,11.09.1,2.92,6.26,13.39,10.8,21.1,5.31,9.02,11.33,19.25,15.34,28.55,9.98,23.15,11.68,37.29,12.56,49.79,3.09,43.73-17.61,86.51-58.28,120.46-34.75,29.01-81.91,48.93-123.06,51.97-8.37.62-16.99.77-24.58.9-8.3.14-17.72.3-19.45,1.23-3.16,2.36-8.83,9.69-10.21,19.06-3.58,24.18-21.35,50.94-50.04,75.35-27.75,23.61-63.28,43.17-100.04,55.06-50.03,16.19-102.22,24.3-156,24.3ZM1096.88,1211.98c80.36,0,160.26,1.46,191.67,5.49,25.05,3.21,62.06,10.42,91.79,16.21,8.19,1.59,15.88,3.09,22.69,4.38,90.87,17.25,178.36,12.6,260.03-13.82,36.08-11.67,70.92-30.85,98.12-53.99,27.65-23.52,44.73-49.05,48.12-71.88,1.65-11.12,8.38-19.74,12.5-22.81,2.51-1.87,8.75-2.05,22.65-2.29,7.52-.13,16.05-.27,24.27-.88,40.04-2.97,85.97-22.39,119.86-50.68,39.24-32.76,59.22-73.86,56.26-115.73-.88-12.52-2.48-25.6-12.11-47.95-3.87-8.97-9.79-19.04-15.02-27.92-9.34-15.87-13.36-23.05-10.81-26.96,1.58-2.42,7.54-5.22,25.56-13.26,8.97-4,19.15-8.54,28.74-13.26,45.9-22.6,74.95-87.92,76.51-138.02.91-29.06-7.65-75.14-53.54-129.6-21.34-25.33-78.5-44.9-90.07-46.04-7.84-.77-21.93-3.2-28.18-10.87-2.5-3.07-3.55-6.63-3.13-10.61,3.31-31.33-.99-55.56-13.16-74.06-10.63-16.15-25.52-25.15-38.69-31.82-14.82-7.51-32.87-11.24-48.79-14.54-4.43-.92-8.61-1.78-12.65-2.7-43.61-9.96-76.22-18.81-98.66-41.99-17.22-17.8-30.11-35.01-42.58-51.66-3.8-5.08-7.39-9.88-11.11-14.69-15.37-19.94-34.61-38.69-41.63-43.36-6.48-4.31-28.44-12.7-45.57-12.72h-.03c-16.42,0-43.77,18.15-46.9,21.38-13.27,13.69-14.97,22.88-17.78,38.11-1.03,5.56-2.19,11.85-4.09,19.36-3.98,15.65-24.69,40.89-46.83,43.25l-.29.02-781.5,2.32h-.09c-70.07-4.08-73.4-35.22-75.39-53.83-.34-3.22-.64-6-1.23-8.16-7.82-28.66-31.4-54.45-54.84-59.99-18.96-4.48-27.33-1.87-34.71.44-1.48.46-2.88.9-4.35,1.28-27.29,7.12-69.29,61.82-94.38,94.5-8.67,11.29-15.51,20.2-19.56,24.35-27.33,28.03-63.11,34.18-97.7,40.12-38.89,6.68-75.62,12.99-100.2,48.46-10.41,15.01-15.79,29.4-16.93,45.29-.45,6.24.7,12.11,1.82,17.79,1.56,7.92,3.03,15.41-.86,21.61-3.66,5.83-18.06,10.09-41.33,16.4-12.53,3.4-25.49,6.91-32.06,10.29-47.35,24.31-80.85,64.59-94.32,113.42-10.29,37.27-6.64,79.62,10.28,119.26,21.85,51.19,59.66,66.49,84.68,76.61,15.39,6.23,26.51,10.72,27.81,20.72,1.08,8.29-4.75,17.79-12.14,29.83-14.98,24.4-37.62,61.29-18.42,117.62,21.34,62.6,71.85,91.27,92.58,100.68,37.13,16.87,74.03,16.21,98.44,15.78,16.37-.29,27.18-.48,32.68,3.89,3.49,2.78,6.93,8.96,12.13,18.32,13.63,24.51,39,70.12,97.68,104.75,71.93,42.44,173.08,56.42,300.64,41.53,14.56-1.7,34.54-6.14,55.7-10.84,26.94-5.99,54.8-12.17,74.11-13.24,33.23-1.83,114.01-3.29,194.34-3.29Z"/>
      </g>
      <rect class="cls-19" x="1532.71" y="100.05" width="44.16" height="44.16" transform="translate(541.74 -1063.63) rotate(45)"/>
      <g>
        <g>
          <polygon class="cls-15" points="1554.65 142.78 1534.02 121.91 1555.01 101.39 1575.63 122.27 1554.65 142.78"/>
          <path class="cls-14" d="M1567.69,122.2l-12.97,12.68-10.33-10.45-2.42-2.45,12.97-12.67,3.87,3.93s1.64,1.65,1.64,1.65l7.24,7.33Z"/>
          <polygon class="cls-17" points="1542.55 121.92 1554.94 109.44 1542.11 121.98 1554.72 134.73 1554.77 134.68 1542.55 121.92"/>
          <polygon class="cls-13" points="1555.01 101.62 1555.01 109.36 1542.11 121.98 1534.25 121.91 1555.01 101.62"/>
          <polygon class="cls-12" points="1554.72 134.74 1554.65 142.55 1546.45 134.24 1538.41 126.11 1534.26 121.9 1542.11 121.97 1544.2 124.08 1549.35 129.31 1554.72 134.74"/>
          <polygon class="cls-9" points="1554.65 142.55 1554.72 134.73 1554.12 134.13 1554.65 142.55"/>
          <polygon class="cls-10" points="1555.01 101.62 1555.01 109.36 1554.59 109.76 1555.01 101.62"/>
          <polygon class="cls-8" points="1534.25 121.91 1542.11 121.98 1542.51 121.61 1534.25 121.91"/>
          <polygon class="cls-7" points="1542.55 121.92 1555.01 109.36 1567.69 122.2 1542.55 121.92"/>
        </g>
        <path class="cls-6" d="M1562.77,114.29c-.03,3.38-3.93,6.09-8.71,6.05-4.78-.04-8.63-2.82-8.6-6.2.03-3.38,3.93-6.09,8.71-6.05,4.78.04,8.63,2.82,8.6,6.2Z"/>
      </g>
      <rect class="cls-19" x="614.49" y="105.9" width="44.16" height="44.16" transform="translate(276.94 -412.64) rotate(45)"/>
      <g>
        <g>
          <polygon class="cls-11" points="636.44 148.57 615.81 127.69 636.79 107.18 657.42 128.05 636.44 148.57"/>
          <path class="cls-20" d="M649.47,127.98l-12.97,12.68-10.33-10.45-2.42-2.45,12.97-12.67,3.87,3.93s1.64,1.65,1.64,1.65l7.24,7.33Z"/>
          <polygon class="cls-17" points="624.33 127.71 636.73 115.23 623.9 127.76 636.51 140.52 636.56 140.47 624.33 127.71"/>
          <polygon class="cls-21" points="636.79 107.41 636.79 115.15 623.9 127.76 616.04 127.69 636.79 107.41"/>
          <polygon class="cls-22" points="636.51 140.52 636.44 148.34 628.24 140.03 620.2 131.89 616.05 127.69 623.9 127.76 625.98 129.86 631.14 135.09 636.51 140.52"/>
          <polygon class="cls-2" points="636.44 148.34 636.51 140.52 635.9 139.91 636.44 148.34"/>
          <polygon class="cls-4" points="636.79 107.41 636.79 115.15 636.38 115.55 636.79 107.41"/>
          <polygon class="cls-3" points="616.04 127.69 623.9 127.76 624.29 127.4 616.04 127.69"/>
          <polygon class="cls-5" points="624.33 127.71 636.79 115.15 649.47 127.98 624.33 127.71"/>
        </g>
        <path class="cls-1" d="M644.56,120.07c-.03,3.38-3.93,6.09-8.71,6.05-4.78-.04-8.63-2.82-8.6-6.2.03-3.38,3.93-6.09,8.71-6.05,4.78.04,8.63,2.82,8.6,6.2Z"/>
      </g>
    </g>
  </g>
</svg>