<svg width="378" height="200" viewBox="0 0 378 200" fill="none" xmlns="http://www.w3.org/2000/svg">
<path d="M24.4202 18.8043H357.827C359.437 18.8043 360.747 20.2894 360.747 22.1234V172.626C360.747 177.332 357.386 181.153 353.247 181.153H19.8543C18.245 181.153 16.9351 179.668 16.9351 177.834V27.3149C16.9351 22.617 20.2884 18.8043 24.4202 18.8043Z" fill="#898C83" stroke="black" stroke-width="2.01414" stroke-miterlimit="10"/>
<path d="M24.0834 22.4596H354.684C356.241 22.4596 357.506 23.8979 357.506 25.6681V174.204C357.506 175.974 356.241 177.413 354.684 177.413H23.1627C21.6058 177.413 20.3408 175.974 20.3408 174.204V26.7149C20.3408 24.366 22.0175 22.4596 24.0834 22.4596Z" fill="#27282C"/>
<path d="M345.638 19.0638C345.631 19.8298 345.72 20.6 345.893 21.3404C345.949 21.583 346.196 21.7532 346.409 21.6766C346.622 21.6 346.765 21.3447 346.705 21.0894C346.664 20.9191 346.626 20.7447 346.596 20.5702C346.581 20.4851 346.566 20.3957 346.555 20.3064C346.548 20.2596 346.544 20.2128 346.536 20.166C346.521 20.0596 346.544 20.2468 346.533 20.1319C346.495 19.7787 346.476 19.4255 346.48 19.0681C346.48 18.817 346.286 18.5787 346.061 18.5915C345.836 18.6043 345.642 18.8 345.642 19.0681L345.638 19.0638Z" fill="black"/>
<path d="M347.981 19.2298C347.951 19.8894 348.015 20.5574 348.157 21.1957C348.209 21.4383 348.46 21.6085 348.673 21.5319C348.887 21.4553 349.025 21.2043 348.969 20.9447C348.935 20.7957 348.909 20.6511 348.883 20.5021C348.879 20.4681 348.872 20.434 348.868 20.4C348.868 20.3872 348.845 20.2468 348.857 20.3234C348.868 20.4 348.849 20.2638 348.849 20.2468C348.849 20.2128 348.842 20.1787 348.838 20.1404C348.812 19.8383 348.808 19.5362 348.819 19.2298C348.83 18.9787 348.617 18.7404 348.4 18.7532C348.161 18.766 347.992 18.9617 347.981 19.2298Z" fill="black"/>
<path d="M34.9667 178.583C34.9593 179.349 35.0491 180.119 35.2212 180.86C35.2774 181.102 35.5244 181.272 35.7377 181.196C35.951 181.119 36.0933 180.864 36.0334 180.609C35.9922 180.438 35.9548 180.264 35.9248 180.089C35.9099 180.004 35.8949 179.915 35.8837 179.826C35.8762 179.779 35.8724 179.732 35.865 179.685C35.85 179.579 35.8724 179.766 35.8612 179.651C35.8238 179.298 35.8051 178.945 35.8088 178.587C35.8088 178.336 35.6142 178.098 35.3897 178.111C35.1651 178.123 34.9705 178.319 34.9705 178.587L34.9667 178.583Z" fill="black"/>
<path d="M37.3134 178.749C37.2835 179.409 37.3471 180.077 37.4893 180.715C37.5417 180.957 37.7925 181.128 38.0058 181.051C38.2191 180.974 38.3576 180.723 38.3014 180.464C38.2678 180.315 38.2416 180.17 38.2154 180.021C38.2116 179.987 38.2041 179.953 38.2004 179.919C38.2004 179.906 38.1779 179.766 38.1892 179.843C38.2004 179.919 38.1817 179.783 38.1817 179.766C38.1817 179.732 38.1742 179.698 38.1705 179.66C38.1443 179.357 38.1405 179.055 38.1517 178.749C38.163 178.498 37.9496 178.26 37.7326 178.272C37.493 178.285 37.3246 178.481 37.3134 178.749Z" fill="black"/>
<path d="M18 27.4V89.05C18 69.5 18 32.92 18.01 27.4H18Z" fill="#524949"/>
<path d="M22.8701 59.05C22.8801 57.6 22.8701 56.14 22.8501 54.68V71.06C22.8501 71.06 22.8601 71.06 22.8701 71.06C22.9001 67.07 22.8301 63.05 22.8701 59.06V59.05Z" fill="#524949"/>
<path d="M22.9199 165.09C23.0699 165.15 23.6099 165.04 24.3599 164.99V164.97C23.6199 164.99 23.0799 165.13 22.9199 165.09Z" fill="#524949"/>
<path d="M22.8501 39.15V41.57C22.8501 41.39 22.8601 41.22 22.8701 41.04C22.9001 40.45 22.8701 39.8 22.8501 39.15Z" fill="#524949"/>
<path d="M21.8498 76.53C21.8498 76.41 21.8498 76.28 21.8398 76.16C21.8398 76.59 21.8398 77.07 21.8398 77.57C21.8398 77.22 21.8398 76.88 21.8398 76.53H21.8498Z" fill="#524949"/>
<path d="M19.9399 111.04L21.8699 111.13L19.9399 111.04Z" fill="#524949"/>
<path d="M19.9399 102.05C19.9399 102.05 20.4799 102.01 21.0199 102.01C20.5699 102.01 20.1199 102.04 19.9399 102.05Z" fill="#524949"/>
<path d="M19.82 115.98C19.8 118.95 19.8 122.13 19.8 122.13L18 123.05V171.85C18 172.3 18.05 172.74 18.14 173.16L20 173.05C20 173.05 19.8 130.67 19.82 115.98Z" fill="#524949"/>
<path d="M97.55 29.21C98.29 29.66 99.06 30.3 99.82 31.08C103.96 28.61 108.61 23.1 110.2 20.97C136.22 21.01 162.29 21.07 188.4 21.15C188.61 21.15 188.82 21.15 189.03 21.15C189.24 21.15 189.45 21.15 189.66 21.15C215.77 21.06 241.84 21 267.86 20.96C269.45 23.08 274.1 28.6 278.24 31.07C279 30.28 279.77 29.64 280.51 29.2C280.92 28.95 281.32 28.75 281.71 28.64C282.24 28.5 282.68 28.34 283.04 28.15C280.89 27.84 277.25 24.77 277.25 24.77C277.25 24.77 273.68 18.81 273.99 17.04C264.32 17.97 251.94 17.04 241.91 17.04C224.5 17.05 207.08 17.11 189.65 17.14C189.44 17.14 189.23 17.14 189.02 17.14C188.81 17.14 188.6 17.14 188.39 17.14C170.97 17.11 153.54 17.05 136.13 17.04C126.1 17.04 113.73 17.97 104.05 17.04C104.36 18.81 100.79 24.77 100.79 24.77C100.79 24.77 97.15 27.84 95 28.15C95.36 28.34 95.8 28.5 96.33 28.64C96.72 28.75 97.12 28.95 97.53 29.2L97.55 29.21Z" fill="#66E99E"/>
<path d="M104 17.05C113.67 17.98 126.05 17.05 136.08 17.05C137.12 15.39 139.88 16.05 141.58 16.03C157.15 15.84 172.74 15.82 188.34 15.85C188.55 15.85 188.76 15.85 188.97 15.85C189.18 15.85 189.39 15.85 189.6 15.85C205.19 15.82 220.78 15.84 236.36 16.03C238.06 16.05 240.82 15.39 241.86 17.05C251.89 17.05 264.26 17.98 273.94 17.05C274.4 17.01 274.84 16.52 274.94 16.05C273.89 15.13 271.87 15.08 270.49 15C243.53 15.26 216.57 15.14 189.6 15.01C189.39 15.01 189.18 15.01 188.97 15.01H188.34C161.37 15.14 134.41 15.26 107.45 15C106.07 15.07 104.05 15.13 103 16.05C103.1 16.52 103.55 17.01 104 17.05Z" fill="#9D9486"/>
<path d="M94.1 23.65C94.43 23.61 94.55 23.85 95.3 23.65C97.04 23.19 97.94 23.07 99.03 22.08C75.99 21.44 26.19 22.47 24.5 22.5C21.5 22.5 20.84 24.34 20.46 25.22C21.16 24.27 60.28 23.88 76.97 23.66H94.11L94.1 23.65Z" fill="#59FAB1"/>
<path d="M94.0999 23.65C94.0999 23.65 94.0699 23.8 94.0299 24.04C93.8799 25 93.6499 27.46 95.0199 28.16C97.1699 27.85 100.81 24.78 100.81 24.78C100.81 24.78 104.38 18.82 104.07 17.05C103.61 17.01 103.17 16.52 103.07 16.05C101.95 17.03 102.03 18.93 100.06 21.05C99.7099 21.43 99.3699 21.77 99.0299 22.08C97.9499 23.07 97.0399 23.19 95.2999 23.65C94.5499 23.85 94.4299 23.61 94.0999 23.65Z" fill="#79F6B3"/>
<path d="M22.8499 41.57V39.15C22.8199 38.45 22.7799 37.73 22.7599 37.04H20.4599L19.9699 90.04L19.8599 102.05C19.8599 102.05 19.8899 102.05 19.9399 102.05C20.1099 102.04 20.5699 102.01 21.0199 102.01C21.3399 102.01 21.6599 102.01 21.8699 102.05C21.9199 96.12 21.8699 84.22 21.8499 77.57C21.8499 77.07 21.8499 76.6 21.8499 76.16C21.8499 74.09 21.8299 72.79 21.8299 72.79L22.8699 72.74V71.06V54.68C22.8099 50.31 22.6799 45.91 22.8699 41.58L22.8499 41.57Z" fill="#36D173"/>
<path d="M76.9601 25.06C76.9601 25.06 76.9901 25.06 77.0001 25.05C85.2301 23.59 89.3601 27.94 88.0301 36.05C94.2801 33.72 98.2301 35.04 99.0501 42.05C99.7701 42.07 99.3701 45.21 101.49 45.13H188.39H189.02H276.55C278.68 45.21 278.27 42.07 278.99 42.05C279.81 35.03 283.76 33.72 290.01 36.05C288.69 27.94 292.81 23.6 301.04 25.05C301.05 25.05 301.07 25.05 301.08 25.06C301.1 25.06 301.11 25.06 301.13 25.06C301.13 25.06 301.09 25.05 301.07 25.04V23.65H283.93C283.93 23.65 283.96 23.8 284 24.04C284.15 25 284.38 27.46 283.01 28.16C282.65 28.35 282.21 28.51 281.68 28.65C281.29 28.76 280.89 28.96 280.48 29.21C279.74 29.66 278.97 30.3 278.21 31.08C275.06 34.34 272.07 39.8 271.93 41.64C271.91 41.8 271.93 41.93 271.96 42.04L189.63 42.07H189H188.37L106.04 42.04C106.07 41.93 106.08 41.8 106.07 41.64C105.93 39.8 102.94 34.34 99.7901 31.08C99.0301 30.29 98.2601 29.65 97.5201 29.21C97.1101 28.96 96.7101 28.76 96.3201 28.65C95.7901 28.51 95.3501 28.35 94.9901 28.16C93.6201 27.46 93.8601 25 94.0001 24.04C94.0401 23.8 94.0701 23.65 94.0701 23.65H76.9301V25.04C76.9301 25.04 76.8901 25.05 76.8701 25.05C76.8701 25.05 76.9001 25.05 76.9201 25.05L76.9601 25.06Z" fill="#2DBA62"/>
<path d="M20.4598 37.05H22.7598C22.7598 36.98 22.7598 36.91 22.7598 36.84C22.7598 36.2 22.7798 35.59 22.8698 35.05C23.4398 31.73 24.7698 29.97 26.3898 29.21C29.4698 27.78 33.6398 29.96 35.8998 32.05C36.0098 32.1 36.1498 32.12 36.3198 32.14C36.5098 32.16 36.7198 32.17 36.9598 32.18C37.5098 32.21 38.1698 32.27 38.8298 32.59C40.5298 33.41 44.9798 37.67 46.6098 37.92C46.7698 37.94 46.9198 37.94 47.0598 37.92C47.1198 37.92 47.1698 37.91 47.2298 37.9C47.3498 37.88 47.4598 37.84 47.5698 37.79C47.6598 37.75 47.7398 37.71 47.8198 37.66C47.8298 37.66 47.8398 37.65 47.8498 37.64C48.0198 37.53 48.1698 37.39 48.3198 37.24C48.3698 37.19 48.4198 37.13 48.4698 37.08C48.5498 36.99 48.6198 36.89 48.6898 36.79C49.1298 36.15 49.3398 35.49 49.3398 35.49C49.2398 35.06 49.1398 34.6 49.0398 34.1C47.9298 28.73 50.7898 25.58 54.2398 24.8C55.1398 24.6 56.0698 24.55 56.9898 24.67C61.0598 25.19 64.7698 28.9 62.9798 36.03C62.9798 36.03 62.9898 36.03 62.9998 36.03C63.3698 35.21 64.8398 35.26 65.8098 35.09C65.8598 35.08 65.9098 35.07 65.9598 35.06C68.9098 31.46 71.7698 26.03 76.9298 25.07C76.9498 25.07 76.9698 25.06 76.9898 25.06V23.67C60.2998 23.9 21.1798 24.29 20.4798 25.23C20.4498 25.27 20.4398 25.82 20.4298 26.67C20.4298 26.9 20.4298 27.15 20.4298 27.41C20.4198 30.83 20.4798 37.06 20.4798 37.06L20.4598 37.05Z" fill="#32D971"/>
<path d="M22.87 41.05C23.9 40.9 25.08 40.06 26.24 39.18C27.53 38.22 28.81 37.21 29.88 37.05C36.84 35.98 45.7 48.64 58.3 40.9C59.43 40.21 60.43 39.44 61.23 38.62C62 37.83 62.59 36.97 62.96 36.05C62.96 36.05 62.96 36.04 62.96 36.03C64.76 28.9 61.05 25.19 56.97 24.67C56.05 24.55 55.12 24.6 54.22 24.8C50.77 25.59 47.91 28.73 49.02 34.1C49.12 34.6 49.22 35.06 49.32 35.49C49.32 35.49 49.35 35.5 49.38 35.52C49.79 35.71 52.38 36.82 53.46 35.06C54.24 33.79 51.96 30.6 55.43 29.07C59.16 32.21 55.94 36.6 52.43 38.34C51.73 38.69 51.02 38.93 50.34 39.04C50.32 39.04 50.29 39.04 50.27 39.04C45.57 39.73 38.52 35.95 35.89 32.05C35.89 32.05 35.89 32.05 35.89 32.04C33.63 29.96 29.46 27.78 26.38 29.2C24.75 29.95 23.43 31.72 22.86 35.04C22.77 35.58 22.75 36.19 22.75 36.83C22.75 36.9 22.75 36.97 22.75 37.04C22.76 37.73 22.8 38.44 22.84 39.15C22.87 39.81 22.89 40.45 22.86 41.04L22.87 41.05Z" fill="#32292C"/>
<path d="M65.4202 39.84C70.4302 36.35 76.6802 24.52 83.0102 30.05C87.5702 34.04 77.9302 41.88 78.0102 33.05C79.0502 32.95 80.0202 35.03 80.5102 35.03C81.6102 35.03 81.7402 32.64 82.0102 32.05C77.5402 26.91 72.5502 33.27 76.0002 38.05C77.9502 41.52 79.8402 38.82 83.0202 40.05C86.7602 38.92 87.0602 40.07 89.0302 40.05C90.6202 40.03 92.4802 38.54 94.4002 39.14C95.5802 39.51 95.7502 41.31 96.7502 42.06C99.2402 43.92 98.8902 42.04 99.0502 42.05C98.2302 35.03 94.2802 33.72 88.0302 36.05C89.3502 27.94 85.2302 23.6 77.0002 25.05C76.9902 25.05 76.9702 25.05 76.9602 25.06C71.8002 26 68.9302 31.44 65.9802 35.05C65.2702 35.92 64.4602 38.46 62.9702 40.05H63.9702C64.4702 40.03 64.9502 39.95 65.4302 39.84H65.4202Z" fill="#33272A"/>
<path d="M61.2298 38.62C60.4398 39.44 59.4498 40.2 58.2998 40.9C45.6898 48.64 36.8398 35.97 29.8798 37.05C29.3498 39.48 31.1198 39.12 32.5198 39.87C40.4898 44.14 46.4698 46.92 56.0098 44.62C57.0698 44.37 62.3098 40.74 62.9598 40.05C64.4498 38.46 65.2598 35.92 65.9698 35.05C65.9098 35.06 65.8498 35.07 65.7898 35.08C64.8198 35.24 63.3598 35.2 62.9798 36.02C62.9798 36.03 62.9598 36.04 62.9598 36.05C62.5798 36.98 61.9898 37.83 61.2298 38.62Z" fill="#38CE73"/>
<path d="M82.0102 32.05C82.2802 31.48 83.0302 30.91 83.0102 30.05C76.6802 24.52 70.4302 36.35 65.4202 39.84C65.1102 40.06 64.8002 40.25 64.4902 40.4C66.3702 42.04 68.6902 39.24 71.5202 38.98C74.1902 38.74 76.4402 41.47 75.9902 38.05C72.5402 33.27 77.5402 26.91 82.0002 32.05H82.0102Z" fill="#35D86E"/>
<path d="M83.0102 40.05C82.2702 40.27 79.7202 41 80.0102 42.04C83.7402 42.24 88.0402 45.44 89.0302 40.05C87.0602 40.07 86.7602 38.92 83.0202 40.05H83.0102Z" fill="#32C96A"/>
<path d="M47.0698 37.92C47.1298 37.92 47.1798 37.91 47.2398 37.9" stroke="#36D070" stroke-linecap="round" stroke-linejoin="round"/>
<path d="M47.5698 37.79C47.6598 37.75 47.7398 37.71 47.8198 37.66" stroke="#36D070" stroke-linecap="round" stroke-linejoin="round"/>
<path d="M36.3198 32.13C36.5098 32.15 36.7198 32.16 36.9598 32.17" stroke="#36D070" stroke-linecap="round" stroke-linejoin="round"/>
<path d="M47.8198 37.66C47.8198 37.66 47.8398 37.65 47.8498 37.64" stroke="#36D070" stroke-linecap="round" stroke-linejoin="round"/>
<path d="M47.23 37.89C47.35 37.87 47.46 37.83 47.57 37.78" stroke="#36D070" stroke-linecap="round" stroke-linejoin="round"/>
<path d="M46.6099 37.91C46.7699 37.93 46.9199 37.93 47.0599 37.91" stroke="#36D070" stroke-linecap="round" stroke-linejoin="round"/>
<path d="M50.2899 39.04C50.2899 39.04 50.3399 39.04 50.3599 39.04C51.0299 38.93 51.7499 38.69 52.4499 38.34C55.9699 36.6 59.1899 32.21 55.4499 29.07C51.9799 30.6 54.2599 33.79 53.4799 35.06C52.3999 36.82 49.8099 35.71 49.3999 35.52C49.3599 35.5 49.3399 35.49 49.3399 35.49C49.3399 35.49 49.1299 36.15 48.6899 36.79C48.6199 36.89 48.5499 36.99 48.4699 37.08C48.4199 37.14 48.3699 37.19 48.3199 37.24C48.1799 37.39 48.0299 37.53 47.8499 37.64C47.8399 37.64 47.8299 37.65 47.8199 37.66C47.7399 37.71 47.6599 37.75 47.5699 37.79C47.4599 37.84 47.3499 37.87 47.2299 37.9C47.1799 37.91 47.1199 37.92 47.0599 37.92C46.9199 37.93 46.7699 37.94 46.6099 37.92C44.9699 37.68 40.5299 33.41 38.8299 32.59C38.1699 32.27 37.5099 32.21 36.9599 32.18C36.7199 32.17 36.5099 32.15 36.3199 32.14C36.1599 32.12 36.0099 32.1 35.8999 32.05C35.8999 32.05 35.8999 32.05 35.8999 32.06C38.5299 35.96 45.5799 39.74 50.2799 39.05L50.2899 39.04Z" fill="#36D070"/>
<path d="M80.5098 35.03C80.0198 35.03 79.0598 32.95 78.0098 33.05C77.9298 41.88 87.5698 34.04 83.0098 30.05C83.0298 30.91 82.2798 31.48 82.0098 32.05C81.7298 32.65 81.5998 35.03 80.5098 35.03Z" fill="#32B864"/>
<path d="M353.7 164.98V165C354.44 165.05 354.98 165.16 355.14 165.1C354.98 165.14 354.44 165 353.7 164.98Z" fill="#524949"/>
<path d="M355.19 59.05C355.23 63.04 355.16 67.06 355.19 71.05C355.19 71.05 355.19 71.05 355.2 71.05V54.67C355.19 56.13 355.18 57.59 355.19 59.04V59.05Z" fill="#524949"/>
<path d="M360.04 27.4C360.04 32.92 360.05 69.5 360.05 89.05V27.4H360.04Z" fill="#524949"/>
<path d="M358.12 102.05C357.95 102.04 357.49 102.01 357.04 102.01C357.58 102.01 358.12 102.05 358.12 102.05Z" fill="#524949"/>
<path d="M356.21 76.53C356.21 76.88 356.21 77.22 356.21 77.57C356.21 77.07 356.21 76.6 356.21 76.16C356.21 76.28 356.2 76.42 356.2 76.53H356.21Z" fill="#524949"/>
<path d="M358.23 115.97C358.25 130.66 358.05 173.05 358.05 173.05L359.91 173.16C360 172.74 360.05 172.3 360.05 171.85V123.05L358.26 122.13C358.26 122.13 358.26 118.94 358.24 115.97H358.23Z" fill="#524949"/>
<path d="M358.11 111.04L356.19 111.13L358.11 111.04Z" fill="#524949"/>
<path d="M355.19 41.05C355.19 41.23 355.2 41.4 355.21 41.58V39.16C355.18 39.82 355.16 40.46 355.19 41.05Z" fill="#524949"/>
<path d="M199.64 171.78H178.41C142.14 171.78 30.8398 171.78 30.8398 171.78C30.9098 173.08 30.8398 174.21 30.8398 174.21L35.2998 174.11C35.2998 174.11 131.64 174.01 181.01 174.04C181.43 174.04 181.85 174.04 182.26 174.04C184.31 174.04 186.36 174.04 188.4 174.04H189.65C191.7 174.04 193.75 174.04 195.79 174.04C196.2 174.04 196.63 174.04 197.04 174.04C246.41 174.01 342.75 174.11 342.75 174.11L347.21 174.21C347.21 174.21 347.13 173.09 347.21 171.78C347.21 171.78 235.9 171.78 199.64 171.78Z" fill="#59FAB1"/>
<path d="M267.85 20.98L189.65 21.24H189.02H188.39L110.19 20.98C108.6 23.1 103.95 28.62 99.8101 31.09C102.96 34.35 105.95 39.81 106.09 41.65C106.11 41.81 106.09 41.94 106.06 42.05L188.39 41.12H189.02H189.65L271.98 42.06C271.95 41.95 271.94 41.82 271.95 41.66C272.09 39.82 275.08 34.36 278.23 31.1C274.09 28.63 269.44 23.12 267.85 20.99V20.98Z" fill="#27282C"/>
<path d="M358.23 115.97C358.21 113.65 358.18 111.46 358.11 111.04L356.18 111.13C356.18 110.71 356.18 110.31 356.18 109.92C356.18 109.53 356.18 109.15 356.18 108.77C356.18 106.53 356.21 104.53 356.19 102.04C356.14 96.11 356.19 84.21 356.21 77.56C356.21 77.21 356.21 76.87 356.21 76.52C356.21 76.4 356.21 76.27 356.22 76.15C356.22 74.08 356.24 72.78 356.24 72.78L355.2 72.73V71.05C355.26 79.7 355.17 88.4 355.2 97.05C355.21 101.37 355.2 105.73 355.2 110.05C355.2 116.04 355.2 122.06 355.2 128.05C355.2 132.3 355.2 136.66 355.2 140.55V165.05C355.2 165.05 355.18 165.09 355.15 165.1C355 165.16 354.46 165.05 353.71 165C353.62 165 353.52 164.99 353.42 164.98C351.58 165.03 348.75 165.97 347.22 171.78C347.15 173.08 347.22 174.21 347.22 174.21L342.76 174.11C342.76 174.11 246.42 174.01 197.05 174.04C196.63 174.04 196.21 174.04 195.8 174.04C193.75 174.04 191.7 174.04 189.66 174.04H188.41C186.36 174.04 184.31 174.04 182.27 174.04C181.86 174.04 181.43 174.04 181.02 174.04C131.65 174.01 35.31 174.11 35.31 174.11L30.85 174.21C30.85 174.21 30.93 173.09 30.85 171.78C29.32 165.97 26.49 165.02 24.65 164.98C24.55 164.98 24.46 164.98 24.36 165C23.62 165.05 23.08 165.16 22.92 165.1C22.89 165.1 22.87 165.08 22.87 165.05V140.55C22.87 136.66 22.87 132.3 22.87 128.05C22.87 122.06 22.87 116.04 22.87 110.05C22.87 105.73 22.86 101.37 22.87 97.05C22.9 88.4 22.81 79.7 22.87 71.05C22.87 71.05 22.87 71.05 22.86 71.05V72.73L21.82 72.78C21.82 72.78 21.82 74.07 21.84 76.15C21.84 76.27 21.85 76.41 21.85 76.52C21.85 76.87 21.85 77.21 21.85 77.56C21.88 84.21 21.92 96.11 21.87 102.04C21.85 104.53 21.88 106.53 21.88 108.77C21.88 109.14 21.88 109.52 21.88 109.92C21.88 110.31 21.88 110.71 21.88 111.13L19.95 111.04C19.89 111.46 19.85 113.65 19.83 115.98C19.81 130.68 20.01 173.05 20.01 173.05L18.15 173.16H18C18 173.16 19.26 179.54 26.33 178.08L189.02 178.02H224.31L351.71 178.08C358.78 179.53 360.04 173.16 360.04 173.16H359.9L358.04 173.05C358.04 173.05 358.24 130.66 358.22 115.97H358.23Z" fill="#3E3236"/>
<path d="M283.92 23.7206H301.06C317.75 23.9506 356.87 24.3406 357.57 25.2806C357.19 24.4006 357.29 22.56 353.5 22.5C351.81 22.47 302.04 21.5106 279 22.1406C280.08 23.1306 280.99 23.2506 282.73 23.7106C283.48 23.9106 283.6 23.6706 283.93 23.7106L283.92 23.7206Z" fill="#59FAB1"/>
<path d="M273.99 17.05C273.68 18.82 277.25 24.78 277.25 24.78C277.25 24.78 280.89 27.85 283.04 28.16C284.41 27.46 284.17 25 284.03 24.04C283.99 23.8 283.96 23.65 283.96 23.65C283.63 23.61 283.51 23.85 282.76 23.65C281.02 23.19 280.12 23.07 279.03 22.08C278.69 21.77 278.35 21.42 278 21.05C276.03 18.93 276.12 17.03 274.99 16.05C274.89 16.52 274.44 17.01 273.99 17.05Z" fill="#79F6B3"/>
<path d="M352.11 139.38C351.75 142.14 350.7 144.89 350.3 147.66C349.3 154.52 350.25 162.03 343.12 166.49C338.96 169.09 222.15 167.45 189.66 167.98C189.44 167.98 189.24 167.98 189.03 167.99C188.82 168 188.6 167.99 188.4 168V167.98C155.91 167.45 39.1001 169.09 34.9401 166.49C27.8101 162.03 28.7601 154.52 27.7601 147.66C27.3601 144.89 26.3101 142.14 25.9501 139.38C25.5701 136.49 27.4001 132.22 24.8901 129.47C24.4001 128.93 23.7501 128.44 22.8701 128.04C22.8701 132.29 22.8701 136.65 22.8701 140.54V165.04C22.8701 165.04 22.8901 165.08 22.9201 165.09C23.0801 165.13 23.6201 164.99 24.3601 164.97C24.4501 164.97 24.5501 164.97 24.6501 164.97C26.4901 165.02 29.3201 165.96 30.8501 171.77C30.8501 171.77 142.16 171.77 178.42 171.77H182.84C185.36 171.77 187.25 171.77 188.4 171.77H188.49H189.66C190.81 171.77 192.7 171.77 195.23 171.77H199.65C235.92 171.77 347.22 171.77 347.22 171.77C348.75 165.96 351.58 165.01 353.42 164.97C353.52 164.97 353.61 164.97 353.71 164.97C354.45 164.99 354.99 165.13 355.15 165.09C355.18 165.09 355.2 165.07 355.2 165.04V140.54C355.2 136.65 355.2 132.29 355.2 128.04C354.32 128.44 353.68 128.93 353.18 129.47C350.66 132.22 352.49 136.49 352.12 139.38H352.11Z" fill="#212120"/>
<path d="M355.3 37.05C355.29 37.74 355.24 38.45 355.21 39.16V41.58C355.39 45.91 355.26 50.31 355.21 54.68V71.06V72.74L356.25 72.79C356.25 72.79 356.25 74.08 356.23 76.16C356.23 76.59 356.23 77.07 356.23 77.57C356.2 84.22 356.16 96.12 356.21 102.05C356.41 102.02 356.73 102.01 357.06 102.01C357.51 102.01 357.96 102.04 358.14 102.05C358.19 102.05 358.22 102.05 358.22 102.05L358.11 90.04L357.62 37.04H355.32L355.3 37.05Z" fill="#36D173"/>
<path d="M188.33 17.15C188.54 17.15 188.75 17.15 188.96 17.15C189.17 17.15 189.38 17.15 189.59 17.15C207.01 17.12 224.44 17.06 241.85 17.05C240.81 15.39 238.05 16.05 236.35 16.03C220.78 15.84 205.19 15.82 189.59 15.85C189.38 15.85 189.17 15.85 188.96 15.85C188.75 15.85 188.54 15.85 188.33 15.85C172.74 15.81 157.15 15.84 141.57 16.03C139.87 16.05 137.11 15.39 136.07 17.05C153.48 17.06 170.9 17.12 188.33 17.15Z" fill="#9D9486"/>
<path d="M301.09 24.05V25.05C301.09 25.05 301.13 25.06 301.15 25.06C306.3 26.01 309.16 31.44 312.12 35.05C312.17 35.06 312.22 35.07 312.27 35.08C313.24 35.24 314.7 35.2 315.08 36.02C315.08 36.02 315.09 36.02 315.1 36.02C313.3 28.89 317.01 25.18 321.09 24.66C322.01 24.54 322.94 24.59 323.84 24.79C327.29 25.58 330.15 28.72 329.04 34.09C328.94 34.59 328.84 35.05 328.74 35.48C328.74 35.48 328.95 36.14 329.38 36.78C329.45 36.88 329.52 36.98 329.6 37.07C329.65 37.13 329.7 37.18 329.75 37.23C329.89 37.38 330.04 37.52 330.22 37.63C330.23 37.63 330.24 37.64 330.25 37.65C330.33 37.7 330.41 37.74 330.5 37.78C330.61 37.83 330.72 37.86 330.84 37.89C330.89 37.9 330.95 37.91 331 37.91C331.14 37.92 331.29 37.93 331.45 37.91C333.09 37.67 337.53 33.4 339.23 32.58C339.89 32.26 340.55 32.2 341.1 32.17C341.34 32.16 341.55 32.14 341.74 32.13C341.9 32.11 342.05 32.09 342.16 32.04C344.42 29.96 348.59 27.78 351.67 29.2C353.3 29.95 354.62 31.72 355.19 35.04C355.28 35.58 355.3 36.19 355.3 36.83C355.3 36.9 355.3 36.97 355.3 37.04H357.6C357.6 37.04 357.67 30.81 357.65 27.39C357.65 27.12 357.65 26.87 357.65 26.65C357.65 25.8 357.63 25.24 357.6 25.21C356.9 24.26 317.78 23.87 301.09 23.65V24.04V24.05Z" fill="#32D971"/>
<path d="M316.82 38.62C317.62 39.44 318.62 40.21 319.75 40.9C332.36 48.64 341.21 35.97 348.17 37.05C349.25 37.22 350.53 38.22 351.81 39.18C352.98 40.05 354.15 40.9 355.18 41.05C355.15 40.46 355.18 39.81 355.2 39.16C355.23 38.46 355.27 37.74 355.29 37.05C355.29 36.98 355.29 36.91 355.29 36.84C355.29 36.2 355.27 35.59 355.18 35.05C354.61 31.73 353.28 29.97 351.66 29.21C348.58 27.78 344.41 29.96 342.15 32.05C342.15 32.05 342.15 32.05 342.15 32.06C339.52 35.96 332.47 39.74 327.77 39.05C327.75 39.05 327.72 39.05 327.7 39.05C327.03 38.94 326.31 38.7 325.61 38.35C322.09 36.61 318.87 32.22 322.61 29.08C326.08 30.61 323.8 33.8 324.58 35.07C325.66 36.83 328.25 35.72 328.66 35.53C328.7 35.51 328.72 35.5 328.72 35.5C328.82 35.07 328.92 34.61 329.02 34.11C330.13 28.74 327.27 25.59 323.82 24.81C322.92 24.61 321.99 24.56 321.07 24.68C317 25.2 313.29 28.91 315.08 36.04C315.08 36.04 315.08 36.05 315.08 36.06C315.46 36.99 316.05 37.84 316.81 38.63L316.82 38.62Z" fill="#32292C"/>
<path d="M281.3 42.06C282.3 41.31 282.47 39.51 283.65 39.14C285.57 38.54 287.43 40.03 289.02 40.05C290.99 40.07 291.29 38.92 295.03 40.05C298.21 38.82 300.1 41.52 302.05 38.05C305.5 33.27 300.5 26.91 296.04 32.05C296.32 32.65 296.45 35.03 297.54 35.03C298.03 35.03 298.99 32.95 300.04 33.05C300.12 41.88 290.48 34.04 295.04 30.05C301.37 24.52 307.62 36.35 312.63 39.84C313.1 39.95 313.59 40.03 314.09 40.05H315.09C313.6 38.46 312.79 35.92 312.08 35.05C309.12 31.44 306.26 26 301.1 25.06C301.09 25.06 301.07 25.06 301.06 25.05C292.83 23.59 288.7 27.94 290.03 36.05C283.78 33.72 279.83 35.04 279.01 42.05C279.17 42.05 278.82 43.93 281.31 42.06H281.3Z" fill="#33272A"/>
<path d="M315.09 40.05C315.74 40.74 320.98 44.37 322.04 44.62C331.58 46.91 337.56 44.13 345.53 39.87C346.93 39.12 348.7 39.48 348.17 37.05C341.21 35.98 332.35 48.64 319.75 40.9C318.6 40.2 317.62 39.44 316.82 38.62C316.05 37.83 315.46 36.97 315.09 36.05C315.09 36.04 315.07 36.03 315.07 36.02C314.7 35.2 313.23 35.25 312.26 35.08C312.2 35.07 312.14 35.06 312.08 35.05C312.79 35.92 313.6 38.46 315.09 40.05Z" fill="#38CE73"/>
<path d="M295.04 30.05C295.02 30.91 295.77 31.48 296.04 32.05C300.51 26.91 305.5 33.27 302.05 38.05C301.6 41.47 303.85 38.74 306.52 38.98C309.36 39.23 311.67 42.04 313.55 40.4C313.25 40.25 312.94 40.06 312.62 39.84C307.61 36.35 301.36 24.52 295.03 30.05H295.04Z" fill="#35D86E"/>
<path d="M289.03 40.05C290.02 45.44 294.31 42.24 298.05 42.04C298.34 41 295.78 40.27 295.05 40.05C291.31 38.92 291.01 40.07 289.04 40.05H289.03Z" fill="#32C96A"/>
<path d="M189.03 41.11L188.4 41.1V41.12L106.07 42.05L188.4 42.07H189.03H189.66L271.99 42.05L189.66 41.12L189.03 41.11Z" fill="#3B292F"/>
<path d="M330.24 37.66C330.32 37.71 330.4 37.75 330.49 37.79" stroke="#36D070" stroke-linecap="round" stroke-linejoin="round"/>
<path d="M330.82 37.89C330.87 37.9 330.93 37.91 330.98 37.91" stroke="#36D070" stroke-linecap="round" stroke-linejoin="round"/>
<path d="M330.21 37.64C330.21 37.64 330.23 37.65 330.24 37.66" stroke="#36D070" stroke-linecap="round" stroke-linejoin="round"/>
<path d="M330.49 37.79C330.6 37.84 330.71 37.87 330.83 37.9" stroke="#36D070" stroke-linecap="round" stroke-linejoin="round"/>
<path d="M330.99 37.92C331.13 37.93 331.28 37.94 331.44 37.92" stroke="#36D070" stroke-linecap="round" stroke-linejoin="round"/>
<path d="M341.1 32.18C341.34 32.17 341.55 32.15 341.74 32.14" stroke="#36D070" stroke-linecap="round" stroke-linejoin="round"/>
<path d="M324.58 35.05C323.8 33.78 326.08 30.59 322.61 29.06C318.88 32.2 322.1 36.59 325.61 38.33C326.31 38.68 327.02 38.92 327.7 39.03C327.72 39.03 327.75 39.03 327.77 39.03C332.47 39.72 339.52 35.94 342.15 32.04C342.15 32.04 342.15 32.04 342.15 32.03C342.04 32.08 341.9 32.1 341.73 32.12C341.54 32.14 341.33 32.15 341.09 32.16C340.54 32.19 339.88 32.25 339.22 32.57C337.52 33.39 333.07 37.65 331.44 37.9C331.28 37.92 331.13 37.92 330.99 37.9C330.93 37.9 330.88 37.89 330.83 37.88C330.71 37.86 330.6 37.82 330.49 37.77C330.4 37.73 330.32 37.69 330.24 37.64C330.23 37.64 330.22 37.63 330.21 37.62C330.04 37.51 329.89 37.37 329.74 37.22C329.69 37.17 329.64 37.12 329.59 37.06C329.51 36.96 329.44 36.87 329.37 36.77C328.94 36.13 328.73 35.47 328.73 35.47C328.73 35.47 328.7 35.48 328.67 35.5C328.26 35.69 325.67 36.8 324.59 35.04L324.58 35.05Z" fill="#36D070"/>
<path d="M300.04 33.05C299 32.95 298.03 35.03 297.54 35.03C296.44 35.03 296.31 32.64 296.04 32.05C295.77 31.48 295.02 30.91 295.04 30.05C290.48 34.04 300.12 41.88 300.04 33.05Z" fill="#32B864"/>
</svg>
