<svg width="140" height="150" viewBox="0 0 140 150" fill="none" xmlns="http://www.w3.org/2000/svg">
<path d="M38.7705 4.46678C38.7705 4.46678 87.7411 16.0449 124.159 13.8196C124.159 13.8196 125.239 21.447 126.624 23.4304C128.01 25.4139 128.204 25.3978 128.993 26.3814C129.783 27.3651 131.749 29.929 133.715 31.5094C135.68 33.0897 139.032 36.6373 139.032 36.6373C139.032 36.6373 139.226 36.0406 137.646 39.5883C136.067 43.1359 133.505 46.877 133.505 47.4737C133.505 48.0703 132.909 52.1985 132.909 52.7951C132.909 53.3918 133.102 53.7788 133.102 55.7461C133.102 57.7134 133.698 59.2937 134.279 61.0675C134.875 62.8413 135.664 65.5988 135.664 65.5988V67.9693L134.085 70.9202L138.227 73.6777C138.227 73.6777 137.437 75.4515 136.647 76.2417C135.858 77.0318 134.681 79.9828 134.681 79.9828C134.681 79.9828 135.858 82.7403 136.841 83.7239C137.824 84.7076 138.017 87.0781 138.017 87.0781L129.751 90.029L137.421 92.7865V94.5603C137.421 95.157 133.682 98.7046 133.489 99.2851C133.296 99.8818 132.103 103.026 132.103 103.026L126.399 118.781L133.489 121.538L122.854 125.876L127.188 132.971C127.188 132.971 127.188 134.745 126.592 135.922C125.996 137.1 128.961 144.195 128.961 144.195H114.2C114.2 144.195 101.003 149.323 100.02 149.903C99.0371 150.5 87.2255 147.339 84.2766 146.759C81.3277 146.162 77.5893 145.372 74.8338 145.969C72.0782 146.565 69.3227 146.952 66.7606 146.952C64.1985 146.952 60.2666 145.372 55.9319 145.178C51.5973 144.985 50.2276 144.582 44.5071 144.985C38.8027 145.372 27.1844 148.129 19.3047 144.985C11.4249 141.84 8.476 141.05 7.87978 140.647C7.28356 140.26 3.35173 138.68 3.35173 138.68L9.05611 130.214C9.05611 130.214 8.45989 123.312 8.66937 120.958C8.86274 118.587 7.49304 116.814 7.68641 115.056C7.87978 113.282 8.86274 112.298 9.8457 108.364C10.8287 104.429 3.94795 95.7536 3.35173 94.1733C2.75551 92.593 0 82.5468 0 81.9663C0 81.3857 3.93183 70.3397 3.93183 70.3397C3.93183 70.3397 13.1813 61.8738 13.1813 60.6805V56.9394L20.2715 47.0867C20.2715 47.0867 36.9979 39.0077 37.5941 39.0077C38.1904 39.0077 15.3406 44.3292 15.3406 44.3292C15.3406 44.3292 14.9539 43.9422 14.1643 42.3619C13.3747 40.7816 11.4088 39.6044 11.4088 39.6044L9.63622 25.4139L8.25041 16.5448L25.3797 15.7547L10.8125 9.85272L12.5851 6.90174C12.5851 6.90174 12.9718 4.83767 13.1813 4.48291C13.3747 4.14427 13.3747 1.3868 13.3747 1.3868L14.1643 0L34.2424 1.17717L38.7221 4.48291L38.7705 4.46678Z" fill="#C2B59B"/>
<path d="M8.29883 16.5286C8.58888 16.5286 18.2573 17.609 19.3531 17.5283C20.4488 17.4477 23.1238 17.8347 24.0745 17.5283C25.0413 17.222 25.6215 17.2865 26.3627 17.0768C27.104 16.8672 30.3429 16.8511 32.9372 17.0768C35.5155 17.3026 37.2236 16.8833 41.2843 17.6412C45.3451 18.3991 47.4883 18.9313 50.0021 18.9313C52.5158 18.9313 57.1567 19.157 58.7198 19.3667C60.2667 19.5924 66.9218 20.4793 67.2763 20.6245C67.647 20.7696 75.1078 20.2536 75.1078 20.2536C75.1078 20.2536 68.9844 20.3342 65.6649 19.5118C62.3454 18.7055 52.822 17.8186 48.7613 17.5122C44.7005 17.222 40.3497 16.1093 37.8359 16.1093C35.3221 16.1093 35.0965 16.3351 32.9695 16.1093C30.8263 15.8835 26.0243 15.2224 25.138 14.8515C24.2518 14.4806 10.8771 9.8042 10.8771 9.8042L25.4442 15.7062L8.31494 16.4963L8.29883 16.5286Z" fill="#9B8579"/>
<path d="M39.9628 38.0079C39.9628 38.0079 28.2318 40.2977 27.7161 40.6686C27.2005 41.0395 18.8534 42.3618 18.2733 42.523C17.6771 42.6681 16.4202 43.039 15.5339 42.0876C14.6476 41.1362 11.5054 39.6204 11.457 39.6043C11.5537 39.6688 13.4391 40.8298 14.1964 42.3618C14.7121 43.3777 15.0505 43.9098 15.2277 44.1517L15.3728 44.3291L37.2557 39.1205H37.2073C37.2073 39.1205 37.2396 39.1205 37.2718 39.1205C37.2234 39.1366 37.159 39.1689 37.1106 39.185L23.7682 45.4256C23.5104 45.5546 23.2686 45.6675 23.0269 45.7804L43.653 37.637L39.9628 38.0079Z" fill="#9B8579"/>
<path d="M135.665 67.953C135.665 67.953 134.15 70.6298 133.828 70.8234C133.505 71.0169 133.312 71.0007 133.232 71.0491C133.151 71.0975 132.216 71.291 132.152 71.3232C132.071 71.3555 130.943 71.8393 130.943 71.8393C130.943 71.8393 132.539 71.4522 132.732 71.4522C132.925 71.4522 133.28 71.4039 133.393 71.4039C133.506 71.4039 133.941 71.4039 134.005 71.4361C134.086 71.4684 134.553 71.5651 134.617 71.6135C134.698 71.6619 138.034 73.5808 138.034 73.5808L134.053 70.9362L135.633 67.9852L135.665 67.953Z" fill="#9B8579"/>
<path d="M138.033 87.0618C138.033 87.0618 134.488 87.7552 134.343 87.8681C134.198 87.981 133.344 88.0132 132.941 88.1261C132.538 88.239 126.302 89.9321 126.302 89.9321C126.302 89.9321 124.562 89.787 123.498 89.9321C122.435 90.0773 119.921 90.1902 118.89 90.2224C117.858 90.2547 116.086 90.2224 116.086 90.2224L117.633 90.4804C117.633 90.4804 118.745 90.3998 119.003 90.4804C119.26 90.561 121.114 90.3998 121.549 90.4804C121.984 90.561 122.58 90.561 122.983 90.4965C123.386 90.432 124.24 90.6739 124.465 90.5288C124.691 90.3998 125.319 90.3998 125.319 90.3998C125.319 90.3998 126.608 90.6417 126.866 90.5772C127.124 90.5127 128.719 90.6739 128.816 90.5772C128.929 90.4965 130.105 90.5933 130.105 90.5933L137.453 92.738L129.783 89.9805L138.049 87.0295L138.033 87.0618Z" fill="#9B8579"/>
<path d="M127.237 116.507C127.237 116.507 125.706 118.491 125.626 118.603C125.545 118.716 124.079 119.039 124.079 119.039C124.079 119.039 124.45 118.861 122.854 119.039C121.259 119.216 117.939 119.297 117.939 119.297L119.116 119.587H120.26C120.405 119.587 121.581 119.732 122 119.587C122.419 119.442 123.483 119.41 123.853 119.41H126.399C126.399 119.41 126.883 119.474 127.398 119.668C127.914 119.861 133.506 121.538 133.506 121.538L126.415 118.781L127.237 116.507Z" fill="#9B8579"/>
<path d="M129.831 123.038L125.738 124.441C125.738 124.441 123.241 125.36 123.015 125.36C122.789 125.36 122.016 125.279 121.839 125.36C121.661 125.441 119.776 125.876 118.89 125.957C118.004 126.037 118.455 125.779 117.311 125.957C116.167 126.134 112.992 126.36 112.702 126.328C112.412 126.295 114.716 126.505 114.716 126.505C114.716 126.505 115.474 126.586 115.651 126.505C115.828 126.424 116.408 126.376 116.634 126.36C116.859 126.344 117.278 126.311 117.472 126.279C117.649 126.263 117.875 126.231 118.116 126.231H120.517C120.614 126.231 121.903 126.134 121.903 126.134L122.628 126.182L124.062 127.731L122.918 125.876L129.864 123.038H129.831Z" fill="#9B8579"/>
<path d="M55.9479 145.178C51.6132 144.985 50.2435 144.582 44.523 144.985C38.8186 145.372 27.2004 148.129 19.3206 144.985C11.4408 141.84 8.49192 141.05 7.89569 140.647C7.70233 140.518 7.17056 140.276 6.526 139.986L4.09277 143.888C4.09277 143.888 14.019 147.404 15.985 147.694C17.9509 147.984 22.0116 148.855 26.5397 148.952C31.0677 149.049 40.8167 147.404 40.8167 147.404C40.8167 147.404 53.4502 145.017 65.149 146.791C62.6835 146.388 59.4285 145.324 55.9156 145.162L55.9479 145.178Z" fill="#F1F2F2"/>
<path d="M55.9479 145.178C51.6132 144.985 50.2435 144.582 44.523 144.985C38.8186 145.372 27.2003 148.129 19.3206 144.985C11.4408 141.84 8.4919 141.05 7.89568 140.647C7.70231 140.518 7.17055 140.276 6.52599 139.986L4.31836 143.614C4.31836 143.614 13.9868 147.097 15.9688 147.388C17.9992 147.694 22.0761 148.694 26.588 148.742C31.1161 148.807 41.139 147.21 41.139 147.21C41.139 147.21 53.4663 145.017 65.149 146.791C62.6835 146.388 59.4285 145.324 55.9156 145.162L55.9479 145.178Z" fill="#E4E5E6"/>
<path d="M55.9483 145.178C51.6136 144.985 50.2439 144.582 44.5235 144.985C38.8191 145.372 27.2008 148.129 19.321 144.985C11.4413 141.84 8.49238 141.05 7.89616 140.647C7.70279 140.518 7.17103 140.276 6.52646 139.986L4.56055 143.324C4.56055 143.324 13.9873 146.775 15.9532 147.081C18.048 147.404 22.1249 148.516 26.6529 148.549C31.181 148.565 41.4618 147.033 41.4618 147.033C41.4618 147.033 53.4668 145.049 65.1656 146.807C62.7001 146.404 59.4451 145.34 55.9322 145.178H55.9483Z" fill="#D7D8DA"/>
<path d="M55.9483 145.178C51.6136 144.985 50.2439 144.582 44.5234 144.985C38.8191 145.372 27.2008 148.129 19.321 144.985C11.4412 141.84 8.49237 141.05 7.89615 140.647C7.70278 140.518 7.17102 140.276 6.52645 139.986L4.78613 143.034C4.78613 143.034 13.955 146.452 15.921 146.759C18.0802 147.081 22.1732 148.339 26.6852 148.323C31.2132 148.307 41.7518 146.823 41.7518 146.823C41.7518 146.823 53.4506 145.033 65.1494 146.807C62.684 146.404 59.429 145.34 55.9161 145.178H55.9483Z" fill="#CACCCE"/>
<path d="M55.9478 145.178C51.6131 144.985 50.2434 144.582 44.5229 144.985C38.8186 145.372 27.2003 148.129 19.3205 144.985C11.4407 141.84 8.49187 141.05 7.89565 140.647C7.70228 140.518 7.17052 140.276 6.52595 139.986L5.02734 142.76C5.02734 142.76 13.9384 146.146 15.9043 146.452C18.1281 146.791 22.2211 148.178 26.733 148.113C31.2611 148.049 42.0736 146.63 42.0736 146.63C42.0736 146.63 53.4501 145.033 65.149 146.807C62.6835 146.404 59.4285 145.34 55.9156 145.178H55.9478Z" fill="#BDBFC1"/>
<path d="M55.9478 145.178C51.6131 144.985 50.2434 144.582 44.5229 144.985C38.8185 145.372 27.2003 148.129 19.3205 144.985C11.4407 141.84 8.49186 141.05 7.89564 140.647C7.70227 140.518 7.1705 140.276 6.52594 139.986L5.25293 142.469C5.25293 142.469 13.9223 145.823 15.8882 146.13C18.1925 146.468 22.2855 148 26.7974 147.904C31.3255 147.807 42.3959 146.436 42.3959 146.436C42.3959 146.436 53.4662 145.033 65.1651 146.807C62.6996 146.404 59.4446 145.34 55.9317 145.178H55.9478Z" fill="#B0B2B5"/>
<path d="M55.9483 145.178C51.6136 144.985 50.2439 144.582 44.5234 144.985C38.819 145.372 27.2008 148.129 19.321 144.985C11.4412 141.84 8.49233 141.05 7.89611 140.647C7.70275 140.518 7.17098 140.276 6.52642 139.986L5.49512 142.179C5.49512 142.179 13.9067 145.517 15.8726 145.807C18.2413 146.162 22.3343 147.823 26.8463 147.678C31.3743 147.533 42.7025 146.227 42.7025 146.227C42.7025 146.227 53.4667 145.033 65.1655 146.791C62.7001 146.388 59.445 145.324 55.9322 145.162L55.9483 145.178Z" fill="#A4A6A8"/>
<path d="M55.9483 145.178C51.6136 144.985 50.2439 144.582 44.5234 144.985C38.819 145.372 27.2008 148.129 19.321 144.985C11.4412 141.84 8.49232 141.05 7.8961 140.647C7.70273 140.518 7.17097 140.276 6.52641 139.986L5.7207 141.905C5.7207 141.905 13.8744 145.211 15.8403 145.501C18.2736 145.872 22.3827 147.662 26.8785 147.468C31.4065 147.291 43.0087 146.033 43.0087 146.033C43.0087 146.033 53.4506 145.033 65.1494 146.807C62.684 146.404 59.4289 145.34 55.916 145.178H55.9483Z" fill="#989A9C"/>
<path d="M55.9483 145.178C51.6136 144.985 50.2439 144.582 44.5234 144.985C38.819 145.372 27.2008 148.129 19.321 144.985C11.4412 141.84 8.49231 141.05 7.89609 140.647C7.70272 140.518 7.17096 140.276 6.5264 139.986L5.94629 141.615C5.94629 141.615 13.8422 144.888 15.8242 145.178C18.3219 145.549 22.431 147.468 26.9429 147.259C31.471 147.033 43.3309 145.84 43.3309 145.84C43.3309 145.84 53.4667 145.033 65.1655 146.807C62.7001 146.404 59.445 145.34 55.9321 145.178H55.9483Z" fill="#8C8E90"/>
<path d="M55.9478 145.178C51.6131 144.985 50.2434 144.582 44.5229 144.985C38.8185 145.372 27.2003 148.129 19.3205 144.985C11.4407 141.84 8.49181 141.05 7.89559 140.647C7.70222 140.518 7.17046 140.276 6.5259 139.986L6.1875 141.324C6.1875 141.324 13.8417 144.566 15.8076 144.856C18.3697 145.243 22.4949 147.291 26.9908 147.033C31.5188 146.775 43.6366 145.63 43.6366 145.63C43.6366 145.63 53.4662 145.017 65.165 146.791C62.6996 146.388 59.4445 145.324 55.9316 145.162L55.9478 145.178Z" fill="#808285"/>
<path d="M44.5767 117.616C44.5024 118.348 44.6934 119.123 45.1498 119.706C45.8926 120.661 47.1662 120.959 48.3548 120.799C49.5434 120.651 50.7215 120.226 51.8464 119.728C52.9714 119.197 54.0432 118.645 55.0833 117.955C56.1446 117.297 57.1846 116.618 58.2141 115.928C62.3743 113.201 66.4602 110.335 70.5461 107.502C78.6755 101.739 86.9428 96.2521 95.0616 90.6167C99.0838 87.7831 103.255 84.9814 106.629 81.6065C107.415 80.7893 108.253 79.7705 108.253 79.1019C108.317 78.2953 107.67 77.2553 106.948 76.332C105.451 74.4641 103.562 72.8404 101.695 71.2272C94.0428 64.902 85.6587 59.4895 77.2534 54.1831L51.8995 38.3913C51.3794 38.0623 50.817 37.7015 50.2969 37.3407C49.8618 37.0435 49.5116 36.8631 49.1826 36.7888C48.5246 36.6508 47.9834 36.7888 47.3997 37.33C47.1237 37.5848 46.8584 37.935 46.6143 38.317C46.5931 38.4019 46.5719 38.5187 46.5506 38.6354C46.5082 38.8689 46.4763 39.1554 46.4445 39.442C46.3172 40.5882 46.2535 41.8192 46.2004 43.0397C46.0412 47.9428 45.9351 52.9202 45.8926 57.8764C45.7228 67.8099 45.7228 77.7647 45.2665 87.7195C44.8738 97.6742 44.4175 107.64 44.5554 117.594V117.616H44.5767Z" fill="#594A42"/>
<path d="M44.747 117.626C44.6727 118.422 44.9168 119.208 45.458 119.781C45.9781 120.343 46.7846 120.608 47.5594 120.63C49.1619 120.63 50.7007 119.972 52.1547 119.239C52.887 118.868 53.598 118.475 54.2772 118.03L56.3149 116.629C57.6521 115.674 59.0105 114.718 60.3265 113.731C62.9797 111.768 65.5905 109.752 68.2224 107.746L72.1598 104.753L76.1608 101.803C78.8458 99.8605 81.5521 97.9609 84.2902 96.1248C87.0176 94.257 89.777 92.4528 92.5257 90.6274L96.6646 87.9212C98.0337 87.0085 99.4133 86.117 100.74 85.1831C102.077 84.2492 103.383 83.2728 104.624 82.2327C105.229 81.7127 105.877 81.1715 106.386 80.6302C106.651 80.3543 106.906 80.0677 107.118 79.7812C107.33 79.5053 107.49 79.1656 107.49 79.102V79.0383C107.521 78.8685 107.447 78.5607 107.33 78.253C107.203 77.9452 107.023 77.6268 106.821 77.319C106.407 76.6929 105.908 76.0986 105.399 75.5255C104.359 74.3687 103.213 73.2862 102.013 72.2355C99.6362 70.1554 97.1104 68.2133 94.5209 66.356C91.9526 64.4776 89.2994 62.7371 86.6143 61.0284C83.9187 59.341 81.1912 57.696 78.4531 56.0617C72.9663 52.846 67.4158 49.6728 61.9397 46.3934L53.7466 41.4585C52.3882 40.6307 51.0191 39.8348 49.6076 38.9114L49.3423 38.731C49.3423 38.731 49.1725 38.6249 49.1619 38.6143C49.0664 38.5612 48.939 38.4975 48.8753 38.4657C48.8435 38.4657 48.8117 38.4445 48.7904 38.4445C48.7904 38.4445 48.6949 38.4233 48.8753 38.4657L48.8011 38.4445C48.7268 38.4339 48.7692 38.4445 48.7692 38.4445C48.7374 38.4445 48.7374 38.4445 48.7586 38.4445C48.8117 38.4339 48.7268 38.4551 48.5888 38.6037C48.4615 38.731 48.281 38.9751 48.1218 39.2298L48.3765 38.54C48.3765 38.4657 48.3872 38.3808 48.3872 38.3065V38.4339L48.3341 38.7522C48.2492 39.1874 48.1749 40.1319 48.1218 40.8854C48.0794 41.6708 48.0369 42.5198 48.0263 43.2839L47.9308 48.2294C47.8459 51.53 47.8247 54.8094 47.7822 58.1312C47.5912 64.7323 47.5275 71.344 47.1773 77.977L46.8695 82.9438C46.7528 84.5994 46.5936 86.2656 46.4556 87.9L45.596 97.791C45.0441 104.382 44.7045 110.972 44.7576 117.605L44.747 117.626ZM44.3968 117.605C44.28 111.015 44.2694 104.382 44.1951 97.7592L44.0359 77.9346C43.9829 71.3334 43.9935 64.7323 44.0359 58.0993C44.0784 54.82 44.1208 51.477 44.2057 48.1658C44.2376 46.4996 44.3331 44.8546 44.3861 43.199C44.4286 42.3181 44.4817 41.5116 44.5453 40.6519C44.6302 39.7605 44.6515 39.06 44.9062 37.8714L44.8425 38.3171C44.8425 38.2322 44.8425 38.1473 44.8637 38.0518L44.9274 37.6697L45.1184 37.3726C45.3837 36.9587 45.6809 36.5448 46.116 36.1203C46.3495 35.8974 46.583 35.717 46.8908 35.5154C47.1879 35.3243 47.57 35.1651 47.9733 35.0802C48.3765 34.9847 48.7904 34.9847 49.1513 35.0272C49.2468 35.0378 49.3954 35.0696 49.4166 35.0696H49.4909L49.6076 35.1121H49.6395L49.7031 35.1439C49.8836 35.197 50.0428 35.2607 50.1807 35.3243C50.4779 35.4517 50.7114 35.5896 50.9555 35.7382L51.2738 35.9505L51.4967 36.1097C52.7384 36.9693 54.1074 37.8183 55.4447 38.678L63.4891 43.857C68.838 47.3274 74.1443 50.872 79.4401 54.4485C82.0827 56.2421 84.7359 58.0356 87.3466 59.8823C89.968 61.7183 92.5681 63.5755 95.1364 65.4752C96.4205 66.4197 97.6941 67.4067 98.957 68.3725C100.231 69.3595 101.472 70.3146 102.714 71.3865C103.924 72.4372 105.155 73.4666 106.301 74.6446C106.874 75.2389 107.426 75.8332 107.935 76.5231C108.179 76.8733 108.424 77.2341 108.636 77.648C108.827 78.0619 109.029 78.5289 108.997 79.1657V79.102C108.997 79.4946 108.891 79.7706 108.784 80.0253C108.678 80.2694 108.551 80.471 108.424 80.6833C108.169 81.0759 107.893 81.4262 107.617 81.7552C107.023 82.4556 106.45 82.9969 105.845 83.6124C104.635 84.7904 103.372 85.8941 102.067 86.9554C99.4558 89.078 96.8132 91.0201 94.1282 92.9941C91.4432 94.9362 88.7475 96.8359 86.0094 98.7037C83.2925 100.582 80.5438 102.408 77.7845 104.222C72.2977 107.852 66.673 111.397 61.0164 114.846L56.7606 117.414L54.6169 118.677C53.8846 119.101 53.1311 119.462 52.3776 119.813C51.6134 120.152 50.8387 120.471 50.0215 120.693C49.2043 120.906 48.3765 121.107 47.5063 121.054C46.6467 121.001 45.7658 120.704 45.1503 120.046C44.5453 119.409 44.28 118.475 44.3649 117.626L44.3968 117.605Z" fill="#F4F4F4"/>
</svg>
