<svg width="140" height="150" viewBox="0 0 140 150" fill="none" xmlns="http://www.w3.org/2000/svg">
<path d="M38.7705 4.46678C38.7705 4.46678 87.7411 16.0449 124.159 13.8196C124.159 13.8196 125.239 21.447 126.624 23.4304C128.01 25.4139 128.204 25.3978 128.993 26.3814C129.783 27.3651 131.749 29.929 133.715 31.5094C135.68 33.0897 139.032 36.6373 139.032 36.6373C139.032 36.6373 139.226 36.0406 137.646 39.5883C136.067 43.1359 133.505 46.877 133.505 47.4737C133.505 48.0703 132.909 52.1985 132.909 52.7951C132.909 53.3918 133.102 53.7788 133.102 55.7461C133.102 57.7134 133.698 59.2937 134.279 61.0675C134.875 62.8413 135.664 65.5988 135.664 65.5988V67.9693L134.085 70.9202L138.227 73.6777C138.227 73.6777 137.437 75.4515 136.647 76.2417C135.858 77.0318 134.681 79.9828 134.681 79.9828C134.681 79.9828 135.858 82.7403 136.841 83.7239C137.824 84.7076 138.017 87.0781 138.017 87.0781L129.751 90.029L137.421 92.7865V94.5603C137.421 95.157 133.682 98.7046 133.489 99.2851C133.296 99.8818 132.103 103.026 132.103 103.026L126.399 118.781L133.489 121.538L122.854 125.876L127.188 132.971C127.188 132.971 127.188 134.745 126.592 135.922C125.996 137.1 128.961 144.195 128.961 144.195H114.2C114.2 144.195 101.003 149.323 100.02 149.903C99.0371 150.5 87.2255 147.339 84.2766 146.759C81.3277 146.162 77.5893 145.372 74.8338 145.969C72.0782 146.565 69.3227 146.952 66.7606 146.952C64.1985 146.952 60.2666 145.372 55.9319 145.178C51.5973 144.985 50.2276 144.582 44.5071 144.985C38.8027 145.372 27.1844 148.129 19.3047 144.985C11.4249 141.84 8.476 141.05 7.87978 140.647C7.28356 140.26 3.35173 138.68 3.35173 138.68L9.05611 130.214C9.05611 130.214 8.45989 123.312 8.66937 120.958C8.86274 118.587 7.49304 116.814 7.68641 115.056C7.87978 113.282 8.86274 112.298 9.8457 108.364C10.8287 104.429 3.94795 95.7536 3.35173 94.1733C2.75551 92.593 0 82.5468 0 81.9663C0 81.3857 3.93183 70.3397 3.93183 70.3397C3.93183 70.3397 13.1813 61.8738 13.1813 60.6805V56.9394L20.2715 47.0867C20.2715 47.0867 36.9979 39.0077 37.5941 39.0077C38.1904 39.0077 15.3406 44.3292 15.3406 44.3292C15.3406 44.3292 14.9539 43.9422 14.1643 42.3619C13.3747 40.7816 11.4088 39.6044 11.4088 39.6044L9.63622 25.4139L8.25041 16.5448L25.3797 15.7547L10.8125 9.85272L12.5851 6.90174C12.5851 6.90174 12.9718 4.83767 13.1813 4.48291C13.3747 4.14427 13.3747 1.3868 13.3747 1.3868L14.1643 0L34.2424 1.17717L38.7221 4.48291L38.7705 4.46678Z" fill="#C2B59B"/>
<path d="M8.29883 16.5286C8.58888 16.5286 18.2573 17.609 19.3531 17.5283C20.4488 17.4477 23.1238 17.8347 24.0745 17.5283C25.0413 17.222 25.6215 17.2865 26.3627 17.0768C27.104 16.8672 30.3429 16.8511 32.9372 17.0768C35.5155 17.3026 37.2236 16.8833 41.2843 17.6412C45.3451 18.3991 47.4883 18.9313 50.0021 18.9313C52.5158 18.9313 57.1567 19.157 58.7198 19.3667C60.2667 19.5924 66.9218 20.4793 67.2763 20.6245C67.647 20.7696 75.1078 20.2536 75.1078 20.2536C75.1078 20.2536 68.9844 20.3342 65.6649 19.5118C62.3454 18.7055 52.822 17.8186 48.7613 17.5122C44.7005 17.222 40.3497 16.1093 37.8359 16.1093C35.3221 16.1093 35.0965 16.3351 32.9695 16.1093C30.8263 15.8835 26.0243 15.2224 25.138 14.8515C24.2518 14.4806 10.8771 9.8042 10.8771 9.8042L25.4442 15.7062L8.31494 16.4963L8.29883 16.5286Z" fill="#9B8579"/>
<path d="M39.9628 38.0079C39.9628 38.0079 28.2318 40.2977 27.7161 40.6686C27.2005 41.0395 18.8534 42.3618 18.2733 42.523C17.6771 42.6681 16.4202 43.039 15.5339 42.0876C14.6476 41.1362 11.5054 39.6204 11.457 39.6043C11.5537 39.6688 13.4391 40.8298 14.1964 42.3618C14.7121 43.3777 15.0505 43.9098 15.2277 44.1517L15.3728 44.3291L37.2557 39.1205H37.2073C37.2073 39.1205 37.2396 39.1205 37.2718 39.1205C37.2234 39.1366 37.159 39.1689 37.1106 39.185L23.7682 45.4256C23.5104 45.5546 23.2686 45.6675 23.0269 45.7804L43.653 37.637L39.9628 38.0079Z" fill="#9B8579"/>
<path d="M135.665 67.953C135.665 67.953 134.15 70.6298 133.828 70.8234C133.505 71.0169 133.312 71.0007 133.232 71.0491C133.151 71.0975 132.216 71.291 132.152 71.3232C132.071 71.3555 130.943 71.8393 130.943 71.8393C130.943 71.8393 132.539 71.4522 132.732 71.4522C132.925 71.4522 133.28 71.4039 133.393 71.4039C133.506 71.4039 133.941 71.4039 134.005 71.4361C134.086 71.4684 134.553 71.5651 134.617 71.6135C134.698 71.6619 138.034 73.5808 138.034 73.5808L134.053 70.9362L135.633 67.9852L135.665 67.953Z" fill="#9B8579"/>
<path d="M138.033 87.0618C138.033 87.0618 134.488 87.7552 134.343 87.8681C134.198 87.981 133.344 88.0132 132.941 88.1261C132.538 88.239 126.302 89.9321 126.302 89.9321C126.302 89.9321 124.562 89.787 123.498 89.9321C122.435 90.0773 119.921 90.1902 118.89 90.2224C117.858 90.2547 116.086 90.2224 116.086 90.2224L117.633 90.4804C117.633 90.4804 118.745 90.3998 119.003 90.4804C119.26 90.561 121.114 90.3998 121.549 90.4804C121.984 90.561 122.58 90.561 122.983 90.4965C123.386 90.432 124.24 90.6739 124.465 90.5288C124.691 90.3998 125.319 90.3998 125.319 90.3998C125.319 90.3998 126.608 90.6417 126.866 90.5772C127.124 90.5127 128.719 90.6739 128.816 90.5772C128.929 90.4965 130.105 90.5933 130.105 90.5933L137.453 92.738L129.783 89.9805L138.049 87.0295L138.033 87.0618Z" fill="#9B8579"/>
<path d="M127.237 116.507C127.237 116.507 125.706 118.491 125.626 118.603C125.545 118.716 124.079 119.039 124.079 119.039C124.079 119.039 124.45 118.861 122.854 119.039C121.259 119.216 117.939 119.297 117.939 119.297L119.116 119.587H120.26C120.405 119.587 121.581 119.732 122 119.587C122.419 119.442 123.483 119.41 123.853 119.41H126.399C126.399 119.41 126.883 119.474 127.398 119.668C127.914 119.861 133.506 121.538 133.506 121.538L126.415 118.781L127.237 116.507Z" fill="#9B8579"/>
<path d="M129.831 123.038L125.738 124.441C125.738 124.441 123.241 125.36 123.015 125.36C122.789 125.36 122.016 125.279 121.839 125.36C121.661 125.441 119.776 125.876 118.89 125.957C118.004 126.037 118.455 125.779 117.311 125.957C116.167 126.134 112.992 126.36 112.702 126.328C112.412 126.295 114.716 126.505 114.716 126.505C114.716 126.505 115.474 126.586 115.651 126.505C115.828 126.424 116.408 126.376 116.634 126.36C116.859 126.344 117.278 126.311 117.472 126.279C117.649 126.263 117.875 126.231 118.116 126.231H120.517C120.614 126.231 121.903 126.134 121.903 126.134L122.628 126.182L124.062 127.731L122.918 125.876L129.864 123.038H129.831Z" fill="#9B8579"/>
<path d="M55.9479 145.178C51.6132 144.985 50.2435 144.582 44.523 144.985C38.8186 145.372 27.2004 148.129 19.3206 144.985C11.4408 141.84 8.49192 141.05 7.89569 140.647C7.70233 140.518 7.17056 140.276 6.526 139.986L4.09277 143.888C4.09277 143.888 14.019 147.404 15.985 147.694C17.9509 147.984 22.0116 148.855 26.5397 148.952C31.0677 149.049 40.8167 147.404 40.8167 147.404C40.8167 147.404 53.4502 145.017 65.149 146.791C62.6835 146.388 59.4285 145.324 55.9156 145.162L55.9479 145.178Z" fill="#F1F2F2"/>
<path d="M55.9479 145.178C51.6132 144.985 50.2435 144.582 44.523 144.985C38.8186 145.372 27.2003 148.129 19.3206 144.985C11.4408 141.84 8.4919 141.05 7.89568 140.647C7.70231 140.518 7.17055 140.276 6.52599 139.986L4.31836 143.614C4.31836 143.614 13.9868 147.097 15.9688 147.388C17.9992 147.694 22.0761 148.694 26.588 148.742C31.1161 148.807 41.139 147.21 41.139 147.21C41.139 147.21 53.4663 145.017 65.149 146.791C62.6835 146.388 59.4285 145.324 55.9156 145.162L55.9479 145.178Z" fill="#E4E5E6"/>
<path d="M55.9483 145.178C51.6136 144.985 50.2439 144.582 44.5235 144.985C38.8191 145.372 27.2008 148.129 19.321 144.985C11.4413 141.84 8.49238 141.05 7.89616 140.647C7.70279 140.518 7.17103 140.276 6.52646 139.986L4.56055 143.324C4.56055 143.324 13.9873 146.775 15.9532 147.081C18.048 147.404 22.1249 148.516 26.6529 148.549C31.181 148.565 41.4618 147.033 41.4618 147.033C41.4618 147.033 53.4668 145.049 65.1656 146.807C62.7001 146.404 59.4451 145.34 55.9322 145.178H55.9483Z" fill="#D7D8DA"/>
<path d="M55.9483 145.178C51.6136 144.985 50.2439 144.582 44.5234 144.985C38.8191 145.372 27.2008 148.129 19.321 144.985C11.4412 141.84 8.49237 141.05 7.89615 140.647C7.70278 140.518 7.17102 140.276 6.52645 139.986L4.78613 143.034C4.78613 143.034 13.955 146.452 15.921 146.759C18.0802 147.081 22.1732 148.339 26.6852 148.323C31.2132 148.307 41.7518 146.823 41.7518 146.823C41.7518 146.823 53.4506 145.033 65.1494 146.807C62.684 146.404 59.429 145.34 55.9161 145.178H55.9483Z" fill="#CACCCE"/>
<path d="M55.9478 145.178C51.6131 144.985 50.2434 144.582 44.5229 144.985C38.8186 145.372 27.2003 148.129 19.3205 144.985C11.4407 141.84 8.49187 141.05 7.89565 140.647C7.70228 140.518 7.17052 140.276 6.52595 139.986L5.02734 142.76C5.02734 142.76 13.9384 146.146 15.9043 146.452C18.1281 146.791 22.2211 148.178 26.733 148.113C31.2611 148.049 42.0736 146.63 42.0736 146.63C42.0736 146.63 53.4501 145.033 65.149 146.807C62.6835 146.404 59.4285 145.34 55.9156 145.178H55.9478Z" fill="#BDBFC1"/>
<path d="M55.9478 145.178C51.6131 144.985 50.2434 144.582 44.5229 144.985C38.8185 145.372 27.2003 148.129 19.3205 144.985C11.4407 141.84 8.49186 141.05 7.89564 140.647C7.70227 140.518 7.1705 140.276 6.52594 139.986L5.25293 142.469C5.25293 142.469 13.9223 145.823 15.8882 146.13C18.1925 146.468 22.2855 148 26.7974 147.904C31.3255 147.807 42.3959 146.436 42.3959 146.436C42.3959 146.436 53.4662 145.033 65.1651 146.807C62.6996 146.404 59.4446 145.34 55.9317 145.178H55.9478Z" fill="#B0B2B5"/>
<path d="M55.9483 145.178C51.6136 144.985 50.2439 144.582 44.5234 144.985C38.819 145.372 27.2008 148.129 19.321 144.985C11.4412 141.84 8.49233 141.05 7.89611 140.647C7.70275 140.518 7.17098 140.276 6.52642 139.986L5.49512 142.179C5.49512 142.179 13.9067 145.517 15.8726 145.807C18.2413 146.162 22.3343 147.823 26.8463 147.678C31.3743 147.533 42.7025 146.227 42.7025 146.227C42.7025 146.227 53.4667 145.033 65.1655 146.791C62.7001 146.388 59.445 145.324 55.9322 145.162L55.9483 145.178Z" fill="#A4A6A8"/>
<path d="M55.9483 145.178C51.6136 144.985 50.2439 144.582 44.5234 144.985C38.819 145.372 27.2008 148.129 19.321 144.985C11.4412 141.84 8.49232 141.05 7.8961 140.647C7.70273 140.518 7.17097 140.276 6.52641 139.986L5.7207 141.905C5.7207 141.905 13.8744 145.211 15.8403 145.501C18.2736 145.872 22.3827 147.662 26.8785 147.468C31.4065 147.291 43.0087 146.033 43.0087 146.033C43.0087 146.033 53.4506 145.033 65.1494 146.807C62.684 146.404 59.4289 145.34 55.916 145.178H55.9483Z" fill="#989A9C"/>
<path d="M55.9483 145.178C51.6136 144.985 50.2439 144.582 44.5234 144.985C38.819 145.372 27.2008 148.129 19.321 144.985C11.4412 141.84 8.49231 141.05 7.89609 140.647C7.70272 140.518 7.17096 140.276 6.5264 139.986L5.94629 141.615C5.94629 141.615 13.8422 144.888 15.8242 145.178C18.3219 145.549 22.431 147.468 26.9429 147.259C31.471 147.033 43.3309 145.84 43.3309 145.84C43.3309 145.84 53.4667 145.033 65.1655 146.807C62.7001 146.404 59.445 145.34 55.9321 145.178H55.9483Z" fill="#8C8E90"/>
<path d="M55.9478 145.178C51.6131 144.985 50.2434 144.582 44.5229 144.985C38.8185 145.372 27.2003 148.129 19.3205 144.985C11.4407 141.84 8.49181 141.05 7.89559 140.647C7.70222 140.518 7.17046 140.276 6.5259 139.986L6.1875 141.324C6.1875 141.324 13.8417 144.566 15.8076 144.856C18.3697 145.243 22.4949 147.291 26.9908 147.033C31.5188 146.775 43.6366 145.63 43.6366 145.63C43.6366 145.63 53.4662 145.017 65.165 146.791C62.6996 146.388 59.4445 145.324 55.9316 145.162L55.9478 145.178Z" fill="#808285"/>
<path d="M93.6001 37.5821C90.9741 36.1962 88.1503 35.1942 85.2607 34.4732C82.3617 33.7802 79.3779 33.4338 76.3942 33.415C69.7678 33.4244 63.1509 35.138 57.4846 38.4904C51.7995 41.796 47.0274 46.5155 43.7048 52.0497C40.3822 57.584 38.3774 63.8392 37.9726 70.2162C37.502 76.6026 38.6503 83.0545 41.1823 88.9727L41.5023 89.7124L40.947 90.2275L34.3677 96.361L31.0827 99.4231C30.0097 100.453 28.8143 101.455 27.8919 102.485C26.0471 104.601 25.1717 107.551 25.567 110.37C25.7553 111.784 26.2259 113.16 26.9977 114.368C27.3742 114.977 27.8166 115.548 28.3155 116.063L29.8779 117.664C30.9509 118.732 31.911 119.884 33.1064 120.67C34.2924 121.476 35.6572 122.028 37.069 122.281C39.9022 122.815 42.933 122.084 45.1826 120.352C45.7567 119.921 46.2368 119.425 46.7733 118.882L48.3545 117.281L51.5171 114.087L57.8235 107.673L58.2658 107.233L58.8588 107.514C64.1486 110.023 69.9749 111.316 75.7824 111.325C81.5899 111.325 87.3879 110.061 92.593 107.579C103.078 102.663 110.985 92.8682 113.639 81.7154C115.013 76.1531 115.07 70.2724 113.931 64.6446C112.783 59.0167 110.392 53.5948 106.919 48.9127C103.446 44.2213 98.8523 40.3071 93.5907 37.5727L93.6001 37.5821ZM96.7062 80.6479C95.5861 83.1575 93.8637 85.3675 91.8212 87.1186C87.708 90.6489 82.4088 92.3063 77.2601 92.2876C72.121 92.2689 66.8312 90.6208 62.7273 87.0905C60.6943 85.33 59.0094 83.1107 57.927 80.6011C56.8351 78.0915 56.3269 75.3572 56.421 72.6135C56.5151 69.9259 57.2117 67.2384 58.3882 64.8506C59.5648 62.4533 61.1555 60.2996 63.0568 58.4923C66.8406 54.859 71.895 52.5741 77.279 52.3119C79.9239 52.1902 82.6817 52.546 85.2325 53.5012C87.7927 54.447 90.1458 55.9452 92.1318 57.8462C94.1178 59.7377 95.7273 62.0319 96.8286 64.5696C97.9393 67.1073 98.4758 69.8791 98.4664 72.6322C98.4099 75.3853 97.8734 78.1477 96.7157 80.6479H96.7062Z" fill="#594A42"/>
<path d="M93.5344 37.7134C86.4092 34.0333 78.0133 32.8909 70.2198 34.5015C66.3324 35.2881 62.5769 36.674 59.1884 38.6405C57.5036 39.6331 55.8658 40.7381 54.3504 41.9648C52.8162 43.1728 51.3855 44.4931 50.0489 45.9165C44.7026 51.563 41.1636 58.8016 39.7141 66.424C39.0081 70.2352 38.7916 74.1775 39.2152 78.0637C39.6293 81.9592 40.6365 85.7797 42.1613 89.4505L42.3589 89.9281L41.9919 90.2558C39.7517 92.2316 37.5304 94.2356 35.3184 96.2395C34.2078 97.2415 33.0971 98.2434 32.0053 99.2548L30.3581 100.772C29.8028 101.277 29.2568 101.764 28.7391 102.289C26.6778 104.274 25.6989 107.252 26.019 110.061C26.179 111.475 26.6496 112.852 27.4026 114.041C27.7979 114.659 28.212 115.193 28.7203 115.708L30.3016 117.29C31.3935 118.33 32.3629 119.463 33.5301 120.174C34.716 120.933 36.0338 121.41 37.4362 121.607C40.147 122 43.0649 121.101 45.0321 119.285L57.3247 106.343L57.9648 105.669L58.8307 106.081C63.3204 108.216 68.1396 109.471 73.0623 109.789C77.9662 110.108 82.9266 109.462 87.5669 107.907C96.8758 104.845 104.745 97.9719 109.225 89.2913C113.715 80.6388 114.769 70.1884 112.02 60.6088C110.656 55.8144 108.35 51.254 105.196 47.3024C103.606 45.3452 101.827 43.5286 99.869 41.9273C97.9018 40.326 95.7745 38.9214 93.525 37.7322L93.5344 37.7134ZM93.6756 37.4419C95.9534 38.6124 98.1277 39.9983 100.133 41.5808C102.156 43.154 104.039 44.9051 105.723 46.8435C109.131 50.6922 111.804 55.2057 113.583 60.0844C114.468 62.5285 115.117 65.0568 115.522 67.632C115.927 70.2071 116.087 72.8385 115.955 75.4604C115.898 76.7714 115.776 78.0824 115.588 79.384C115.494 80.0395 115.362 80.6763 115.23 81.3318C115.089 81.9685 114.948 82.5959 114.778 83.242C114.129 85.7985 113.206 88.2987 112.02 90.6585C109.658 95.3874 106.392 99.6855 102.373 103.16C98.3536 106.643 93.6285 109.321 88.5552 110.913C83.4819 112.514 78.1168 113.114 72.8364 112.683C67.5655 112.262 62.351 110.791 57.6918 108.413L59.1978 108.151L52.8067 114.425L49.5971 117.543L47.9876 119.097C47.4511 119.612 46.9428 120.146 46.3028 120.68C43.7708 122.796 40.3635 123.658 37.1727 123.077C35.6196 122.796 34.076 122.169 32.7865 121.261C31.4311 120.343 30.4899 119.116 29.4639 118.067L27.9203 116.438C27.3838 115.876 26.8943 115.211 26.5084 114.565C25.6895 113.217 25.2283 111.681 25.0589 110.136C24.72 107.027 25.8589 103.806 28.0803 101.596C32.4382 97.4569 36.768 93.3834 41.0224 89.1789L40.853 89.9749C39.1117 86.3135 37.841 82.3524 37.2198 78.2978C36.5891 74.2243 36.5703 70.0667 37.1821 65.9745C37.5021 63.9331 37.9822 61.9105 38.6034 59.9253C39.2434 57.9588 40.0341 56.0298 40.9565 54.185C41.4177 53.2673 41.9166 52.3215 42.4437 51.46C42.9896 50.5611 43.5637 49.6996 44.1661 48.8568C45.3898 47.1806 46.7169 45.57 48.2041 44.1279C54.0774 38.2472 61.8992 34.3985 70.0221 33.3591C78.1356 32.2541 86.4845 33.7243 93.6662 37.4231L93.6756 37.4419Z" fill="#F4F4F4"/>
<path d="M96.8467 80.7138C94.6065 85.6206 90.4651 89.7315 85.2694 91.9508C80.0832 94.1888 73.9086 94.2169 68.6471 92.0351C66.0116 90.9488 63.6114 89.3101 61.663 87.2875C60.6841 86.2574 59.8182 85.1711 59.084 83.9819C58.3404 82.8114 57.7098 81.5566 57.2392 80.2737C56.2697 77.6798 55.8085 74.9361 55.9026 72.183C56.0156 69.4206 56.6368 66.6769 57.7851 64.1299C58.9334 61.5922 60.5618 59.2043 62.5666 57.2472C64.6091 55.2245 67.0187 53.642 69.6636 52.5089C72.2991 51.3758 75.1793 50.7484 78.0689 50.6735C80.9679 50.5893 83.9329 51.123 86.5966 52.2748C89.2979 53.4266 91.7169 55.1683 93.6559 57.2565C94.6536 58.3334 95.4913 59.4852 96.2161 60.7307C96.9408 61.9574 97.515 63.2871 97.948 64.5981C98.8327 67.323 99.068 70.1229 98.8798 72.8573C98.6351 75.5822 97.995 78.251 96.8561 80.7138H96.8467ZM96.5643 80.5827C97.675 78.1574 98.1268 75.4699 98.0327 72.8385C97.9197 70.2259 97.1856 67.6321 96.0467 65.3847C95.4631 64.2141 94.7854 63.1653 94.0324 62.1446C93.2794 61.1427 92.4135 60.1969 91.5287 59.3635C89.7027 57.6218 87.6037 56.2359 85.3353 55.3182C83.0387 54.363 80.5914 53.9323 78.1066 53.8948C75.6028 53.8761 73.118 54.3349 70.7554 55.2152C68.4023 56.0954 66.1904 57.4251 64.2703 59.0451C62.3031 60.7119 60.5994 62.6503 59.3005 64.8884C58.0016 67.117 57.1545 69.6453 56.9474 72.2392C56.7403 74.8425 57.1451 77.5113 58.1616 79.8991C58.6793 81.1071 59.3382 82.2308 60.1288 83.2609C60.9195 84.2816 61.8324 85.2367 62.8208 86.0327C64.8256 87.662 67.1411 88.8325 69.5507 89.6285C71.9602 90.4244 74.4922 90.8365 77.0241 90.9208C79.5561 90.9957 82.1257 90.7522 84.62 90.0967C87.1143 89.4412 89.5521 88.355 91.6511 86.7443C93.75 85.1524 95.4913 83.0174 96.5643 80.5827Z" fill="#F4F4F4"/>
</svg>
