<svg width="140" height="150" viewBox="0 0 140 150" fill="none" xmlns="http://www.w3.org/2000/svg">
<path d="M38.7705 4.46678C38.7705 4.46678 87.7411 16.0449 124.159 13.8196C124.159 13.8196 125.239 21.447 126.624 23.4304C128.01 25.4139 128.204 25.3978 128.993 26.3814C129.783 27.3651 131.749 29.929 133.715 31.5094C135.68 33.0897 139.032 36.6373 139.032 36.6373C139.032 36.6373 139.226 36.0406 137.646 39.5883C136.067 43.1359 133.505 46.877 133.505 47.4737C133.505 48.0703 132.909 52.1985 132.909 52.7951C132.909 53.3918 133.102 53.7788 133.102 55.7461C133.102 57.7134 133.698 59.2937 134.279 61.0675C134.875 62.8413 135.664 65.5988 135.664 65.5988V67.9693L134.085 70.9202L138.227 73.6777C138.227 73.6777 137.437 75.4515 136.647 76.2417C135.858 77.0318 134.681 79.9828 134.681 79.9828C134.681 79.9828 135.858 82.7403 136.841 83.7239C137.824 84.7076 138.017 87.0781 138.017 87.0781L129.751 90.029L137.421 92.7865V94.5603C137.421 95.157 133.682 98.7046 133.489 99.2851C133.296 99.8818 132.103 103.026 132.103 103.026L126.399 118.781L133.489 121.538L122.854 125.876L127.188 132.971C127.188 132.971 127.188 134.745 126.592 135.922C125.996 137.1 128.961 144.195 128.961 144.195H114.2C114.2 144.195 101.003 149.323 100.02 149.903C99.0371 150.5 87.2255 147.339 84.2766 146.759C81.3277 146.162 77.5893 145.372 74.8338 145.969C72.0782 146.565 69.3227 146.952 66.7606 146.952C64.1985 146.952 60.2666 145.372 55.9319 145.178C51.5973 144.985 50.2276 144.582 44.5071 144.985C38.8027 145.372 27.1844 148.129 19.3047 144.985C11.4249 141.84 8.476 141.05 7.87978 140.647C7.28356 140.26 3.35173 138.68 3.35173 138.68L9.05611 130.214C9.05611 130.214 8.45989 123.312 8.66937 120.958C8.86274 118.587 7.49304 116.814 7.68641 115.056C7.87978 113.282 8.86274 112.298 9.8457 108.364C10.8287 104.429 3.94795 95.7536 3.35173 94.1733C2.75551 92.593 0 82.5468 0 81.9663C0 81.3857 3.93183 70.3397 3.93183 70.3397C3.93183 70.3397 13.1813 61.8738 13.1813 60.6805V56.9394L20.2715 47.0867C20.2715 47.0867 36.9979 39.0077 37.5941 39.0077C38.1904 39.0077 15.3406 44.3292 15.3406 44.3292C15.3406 44.3292 14.9539 43.9422 14.1643 42.3619C13.3747 40.7816 11.4088 39.6044 11.4088 39.6044L9.63622 25.4139L8.25041 16.5448L25.3797 15.7547L10.8125 9.85272L12.5851 6.90174C12.5851 6.90174 12.9718 4.83767 13.1813 4.48291C13.3747 4.14427 13.3747 1.3868 13.3747 1.3868L14.1643 0L34.2424 1.17717L38.7221 4.48291L38.7705 4.46678Z" fill="#C2B59B"/>
<path d="M8.29883 16.5286C8.58888 16.5286 18.2573 17.609 19.3531 17.5283C20.4488 17.4477 23.1238 17.8347 24.0745 17.5283C25.0413 17.222 25.6215 17.2865 26.3627 17.0768C27.104 16.8672 30.3429 16.8511 32.9372 17.0768C35.5155 17.3026 37.2236 16.8833 41.2843 17.6412C45.3451 18.3991 47.4883 18.9313 50.0021 18.9313C52.5158 18.9313 57.1567 19.157 58.7198 19.3667C60.2667 19.5924 66.9218 20.4793 67.2763 20.6245C67.647 20.7696 75.1078 20.2536 75.1078 20.2536C75.1078 20.2536 68.9844 20.3342 65.6649 19.5118C62.3454 18.7055 52.822 17.8186 48.7613 17.5122C44.7005 17.222 40.3497 16.1093 37.8359 16.1093C35.3221 16.1093 35.0965 16.3351 32.9695 16.1093C30.8263 15.8835 26.0243 15.2224 25.138 14.8515C24.2518 14.4806 10.8771 9.8042 10.8771 9.8042L25.4442 15.7062L8.31494 16.4963L8.29883 16.5286Z" fill="#9B8579"/>
<path d="M39.9628 38.0079C39.9628 38.0079 28.2318 40.2977 27.7161 40.6686C27.2005 41.0395 18.8534 42.3618 18.2733 42.523C17.6771 42.6681 16.4202 43.039 15.5339 42.0876C14.6476 41.1362 11.5054 39.6204 11.457 39.6043C11.5537 39.6688 13.4391 40.8298 14.1964 42.3618C14.7121 43.3777 15.0505 43.9098 15.2277 44.1517L15.3728 44.3291L37.2557 39.1205H37.2073C37.2073 39.1205 37.2396 39.1205 37.2718 39.1205C37.2234 39.1366 37.159 39.1689 37.1106 39.185L23.7682 45.4256C23.5104 45.5546 23.2686 45.6675 23.0269 45.7804L43.653 37.637L39.9628 38.0079Z" fill="#9B8579"/>
<path d="M135.665 67.953C135.665 67.953 134.15 70.6298 133.828 70.8234C133.505 71.0169 133.312 71.0007 133.232 71.0491C133.151 71.0975 132.216 71.291 132.152 71.3232C132.071 71.3555 130.943 71.8393 130.943 71.8393C130.943 71.8393 132.539 71.4522 132.732 71.4522C132.925 71.4522 133.28 71.4039 133.393 71.4039C133.506 71.4039 133.941 71.4039 134.005 71.4361C134.086 71.4684 134.553 71.5651 134.617 71.6135C134.698 71.6619 138.034 73.5808 138.034 73.5808L134.053 70.9362L135.633 67.9852L135.665 67.953Z" fill="#9B8579"/>
<path d="M138.033 87.0618C138.033 87.0618 134.488 87.7552 134.343 87.8681C134.198 87.981 133.344 88.0132 132.941 88.1261C132.538 88.239 126.302 89.9321 126.302 89.9321C126.302 89.9321 124.562 89.787 123.498 89.9321C122.435 90.0773 119.921 90.1902 118.89 90.2224C117.858 90.2547 116.086 90.2224 116.086 90.2224L117.633 90.4804C117.633 90.4804 118.745 90.3998 119.003 90.4804C119.26 90.561 121.114 90.3998 121.549 90.4804C121.984 90.561 122.58 90.561 122.983 90.4965C123.386 90.432 124.24 90.6739 124.465 90.5288C124.691 90.3998 125.319 90.3998 125.319 90.3998C125.319 90.3998 126.608 90.6417 126.866 90.5772C127.124 90.5127 128.719 90.6739 128.816 90.5772C128.929 90.4965 130.105 90.5933 130.105 90.5933L137.453 92.738L129.783 89.9805L138.049 87.0295L138.033 87.0618Z" fill="#9B8579"/>
<path d="M127.237 116.507C127.237 116.507 125.706 118.491 125.626 118.603C125.545 118.716 124.079 119.039 124.079 119.039C124.079 119.039 124.45 118.861 122.854 119.039C121.259 119.216 117.939 119.297 117.939 119.297L119.116 119.587H120.26C120.405 119.587 121.581 119.732 122 119.587C122.419 119.442 123.483 119.41 123.853 119.41H126.399C126.399 119.41 126.883 119.474 127.398 119.668C127.914 119.861 133.506 121.538 133.506 121.538L126.415 118.781L127.237 116.507Z" fill="#9B8579"/>
<path d="M129.831 123.038L125.738 124.441C125.738 124.441 123.241 125.36 123.015 125.36C122.789 125.36 122.016 125.279 121.839 125.36C121.661 125.441 119.776 125.876 118.89 125.957C118.004 126.037 118.455 125.779 117.311 125.957C116.167 126.134 112.992 126.36 112.702 126.328C112.412 126.295 114.716 126.505 114.716 126.505C114.716 126.505 115.474 126.586 115.651 126.505C115.828 126.424 116.408 126.376 116.634 126.36C116.859 126.344 117.278 126.311 117.472 126.279C117.649 126.263 117.875 126.231 118.116 126.231H120.517C120.614 126.231 121.903 126.134 121.903 126.134L122.628 126.182L124.062 127.731L122.918 125.876L129.864 123.038H129.831Z" fill="#9B8579"/>
<path d="M55.9479 145.178C51.6132 144.985 50.2435 144.582 44.523 144.985C38.8186 145.372 27.2004 148.129 19.3206 144.985C11.4408 141.84 8.49192 141.05 7.89569 140.647C7.70233 140.518 7.17056 140.276 6.526 139.986L4.09277 143.888C4.09277 143.888 14.019 147.404 15.985 147.694C17.9509 147.984 22.0116 148.855 26.5397 148.952C31.0677 149.049 40.8167 147.404 40.8167 147.404C40.8167 147.404 53.4502 145.017 65.149 146.791C62.6835 146.388 59.4285 145.324 55.9156 145.162L55.9479 145.178Z" fill="#F1F2F2"/>
<path d="M55.9479 145.178C51.6132 144.985 50.2435 144.582 44.523 144.985C38.8186 145.372 27.2003 148.129 19.3206 144.985C11.4408 141.84 8.4919 141.05 7.89568 140.647C7.70231 140.518 7.17055 140.276 6.52599 139.986L4.31836 143.614C4.31836 143.614 13.9868 147.097 15.9688 147.388C17.9992 147.694 22.0761 148.694 26.588 148.742C31.1161 148.807 41.139 147.21 41.139 147.21C41.139 147.21 53.4663 145.017 65.149 146.791C62.6835 146.388 59.4285 145.324 55.9156 145.162L55.9479 145.178Z" fill="#E4E5E6"/>
<path d="M55.9483 145.178C51.6136 144.985 50.2439 144.582 44.5235 144.985C38.8191 145.372 27.2008 148.129 19.321 144.985C11.4413 141.84 8.49238 141.05 7.89616 140.647C7.70279 140.518 7.17103 140.276 6.52646 139.986L4.56055 143.324C4.56055 143.324 13.9873 146.775 15.9532 147.081C18.048 147.404 22.1249 148.516 26.6529 148.549C31.181 148.565 41.4618 147.033 41.4618 147.033C41.4618 147.033 53.4668 145.049 65.1656 146.807C62.7001 146.404 59.4451 145.34 55.9322 145.178H55.9483Z" fill="#D7D8DA"/>
<path d="M55.9483 145.178C51.6136 144.985 50.2439 144.582 44.5234 144.985C38.8191 145.372 27.2008 148.129 19.321 144.985C11.4412 141.84 8.49237 141.05 7.89615 140.647C7.70278 140.518 7.17102 140.276 6.52645 139.986L4.78613 143.034C4.78613 143.034 13.955 146.452 15.921 146.759C18.0802 147.081 22.1732 148.339 26.6852 148.323C31.2132 148.307 41.7518 146.823 41.7518 146.823C41.7518 146.823 53.4506 145.033 65.1494 146.807C62.684 146.404 59.429 145.34 55.9161 145.178H55.9483Z" fill="#CACCCE"/>
<path d="M55.9478 145.178C51.6131 144.985 50.2434 144.582 44.5229 144.985C38.8186 145.372 27.2003 148.129 19.3205 144.985C11.4407 141.84 8.49187 141.05 7.89565 140.647C7.70228 140.518 7.17052 140.276 6.52595 139.986L5.02734 142.76C5.02734 142.76 13.9384 146.146 15.9043 146.452C18.1281 146.791 22.2211 148.178 26.733 148.113C31.2611 148.049 42.0736 146.63 42.0736 146.63C42.0736 146.63 53.4501 145.033 65.149 146.807C62.6835 146.404 59.4285 145.34 55.9156 145.178H55.9478Z" fill="#BDBFC1"/>
<path d="M55.9478 145.178C51.6131 144.985 50.2434 144.582 44.5229 144.985C38.8185 145.372 27.2003 148.129 19.3205 144.985C11.4407 141.84 8.49186 141.05 7.89564 140.647C7.70227 140.518 7.1705 140.276 6.52594 139.986L5.25293 142.469C5.25293 142.469 13.9223 145.823 15.8882 146.13C18.1925 146.468 22.2855 148 26.7974 147.904C31.3255 147.807 42.3959 146.436 42.3959 146.436C42.3959 146.436 53.4662 145.033 65.1651 146.807C62.6996 146.404 59.4446 145.34 55.9317 145.178H55.9478Z" fill="#B0B2B5"/>
<path d="M55.9483 145.178C51.6136 144.985 50.2439 144.582 44.5234 144.985C38.819 145.372 27.2008 148.129 19.321 144.985C11.4412 141.84 8.49233 141.05 7.89611 140.647C7.70275 140.518 7.17098 140.276 6.52642 139.986L5.49512 142.179C5.49512 142.179 13.9067 145.517 15.8726 145.807C18.2413 146.162 22.3343 147.823 26.8463 147.678C31.3743 147.533 42.7025 146.227 42.7025 146.227C42.7025 146.227 53.4667 145.033 65.1655 146.791C62.7001 146.388 59.445 145.324 55.9322 145.162L55.9483 145.178Z" fill="#A4A6A8"/>
<path d="M55.9483 145.178C51.6136 144.985 50.2439 144.582 44.5234 144.985C38.819 145.372 27.2008 148.129 19.321 144.985C11.4412 141.84 8.49232 141.05 7.8961 140.647C7.70273 140.518 7.17097 140.276 6.52641 139.986L5.7207 141.905C5.7207 141.905 13.8744 145.211 15.8403 145.501C18.2736 145.872 22.3827 147.662 26.8785 147.468C31.4065 147.291 43.0087 146.033 43.0087 146.033C43.0087 146.033 53.4506 145.033 65.1494 146.807C62.684 146.404 59.4289 145.34 55.916 145.178H55.9483Z" fill="#989A9C"/>
<path d="M55.9483 145.178C51.6136 144.985 50.2439 144.582 44.5234 144.985C38.819 145.372 27.2008 148.129 19.321 144.985C11.4412 141.84 8.49231 141.05 7.89609 140.647C7.70272 140.518 7.17096 140.276 6.5264 139.986L5.94629 141.615C5.94629 141.615 13.8422 144.888 15.8242 145.178C18.3219 145.549 22.431 147.468 26.9429 147.259C31.471 147.033 43.3309 145.84 43.3309 145.84C43.3309 145.84 53.4667 145.033 65.1655 146.807C62.7001 146.404 59.445 145.34 55.9321 145.178H55.9483Z" fill="#8C8E90"/>
<path d="M55.9478 145.178C51.6131 144.985 50.2434 144.582 44.5229 144.985C38.8185 145.372 27.2003 148.129 19.3205 144.985C11.4407 141.84 8.49181 141.05 7.89559 140.647C7.70222 140.518 7.17046 140.276 6.5259 139.986L6.1875 141.324C6.1875 141.324 13.8417 144.566 15.8076 144.856C18.3697 145.243 22.4949 147.291 26.9908 147.033C31.5188 146.775 43.6366 145.63 43.6366 145.63C43.6366 145.63 53.4662 145.017 65.165 146.791C62.6996 146.388 59.4445 145.324 55.9316 145.162L55.9478 145.178Z" fill="#808285"/>
<path d="M57.6076 43.4222C56.6545 41.9682 55.3017 40.7926 53.7645 40.0398C52.2272 39.2663 50.485 39.0085 48.8452 39.1632C47.0415 39.3179 45.2276 39.5138 43.4239 39.6273C41.8149 39.7407 40.3288 40.1841 38.9863 40.9576C36.3012 42.525 34.4975 45.33 33.8211 48.3412C33.4624 49.8572 33.4009 51.4556 33.6264 53.0231C33.8416 54.5905 34.2618 56.1683 35.0304 57.6327C35.7888 59.1074 36.8751 60.4995 38.3201 61.4895C39.7446 62.5002 41.5176 63.057 43.2906 63.0673C45.1046 63.0673 46.9083 62.9848 48.7223 62.7889C50.4747 62.6342 52.0838 61.9227 53.416 60.9636C56.0601 59.0043 57.8331 56.2715 58.735 53.1778C59.1859 51.6309 59.4011 49.95 59.2576 48.2691C59.1141 46.5778 58.5607 44.8969 57.6076 43.4429V43.4222Z" fill="#594A42"/>
<path d="M57.475 43.5152C56.5834 42.1333 55.2409 41.0712 53.7446 40.504C52.2484 39.9059 50.6496 39.9059 49.1943 40.2049C47.6161 40.5452 45.9558 40.8855 44.275 41.0505C43.3527 41.133 42.7685 41.1846 42.0409 41.3393C41.344 41.4837 40.6779 41.7002 40.022 41.9786C38.7204 42.5252 37.4803 43.4018 36.4555 44.5567C35.4409 45.722 34.6621 47.1555 34.2931 48.7126C33.9139 50.2698 33.914 51.8992 34.2727 53.477C34.5904 55.0651 35.2565 56.5294 36.1788 57.7875C36.64 58.4063 37.1524 58.9735 37.7161 59.4478C38.29 59.9325 38.8639 60.2831 39.53 60.6338C40.7906 61.2422 42.1536 61.5413 43.5782 61.4381C45.1872 61.3659 46.786 61.2319 48.3642 61.0153C48.5384 60.9844 48.8151 60.9534 48.9279 60.9225L49.389 60.8297C49.7067 60.7472 50.0244 60.6544 50.3319 60.5306C50.9673 60.2935 51.5719 59.9738 52.1663 59.5922C53.3346 58.7982 54.3902 57.7875 55.3126 56.6222C56.2247 55.4673 57.0446 54.1576 57.68 52.7345C58.3154 51.3114 58.7561 49.7542 58.7868 48.1248C58.8073 46.5264 58.3563 44.8764 57.4647 43.4946L57.475 43.5152ZM57.7517 43.3296C59.6169 46.1449 60.365 49.7851 59.8526 53.3635C59.5759 55.1476 58.9918 56.9213 58.0079 58.5094C57.0446 60.0872 55.743 61.4897 54.1955 62.6137C53.4064 63.1603 52.5353 63.6244 51.6129 63.9647C51.1518 64.1297 50.6701 64.2637 50.1781 64.3669C49.9322 64.4184 49.6965 64.4597 49.4198 64.4906C49.1226 64.5215 48.9893 64.5215 48.7536 64.5422C47.0421 64.6762 45.3102 64.7175 43.5987 64.6453C41.713 64.6247 39.735 64.0678 38.1465 62.9644L37.8391 62.7478L37.5931 62.5519C37.4087 62.4075 37.2241 62.2528 37.0397 62.0878C36.6912 61.7578 36.3736 61.4175 36.0661 61.0566C35.482 60.3347 34.99 59.551 34.6006 58.7363C33.8114 57.1276 33.381 55.3744 33.1556 53.6729C32.9301 51.961 32.9404 50.2079 33.2376 48.4961C33.5245 46.7842 34.0574 45.0724 34.9388 43.4946C35.8099 41.9168 37.0807 40.4627 38.7307 39.4727C39.5403 38.9881 40.4422 38.6168 41.3645 38.3899C42.2561 38.1527 43.322 38.0806 44.0599 38.0599C45.6894 37.9878 47.3394 37.9774 49.0611 38.0496C50.9058 38.1424 52.689 38.7612 54.134 39.7409C55.5995 40.6896 56.8191 41.9168 57.7517 43.3193V43.3296Z" fill="#F4F4F4"/>
<path d="M67.2618 58.8185C69.045 60.6026 71.5866 61.6854 74.1794 61.6854C79.4164 61.7369 84.6636 61.2007 89.9005 60.716C92.5241 60.5097 95.1477 60.3241 97.761 60.2726C99.0728 60.2416 100.374 60.2519 101.696 60.2726C102.332 60.2726 102.834 60.2416 103.398 60.1797C103.961 60.1076 104.515 59.9941 105.058 59.8188C107.231 59.1794 109.27 57.777 110.643 55.797C112.037 53.8376 112.672 51.2595 112.314 48.7742C111.955 46.2993 110.613 43.9687 108.665 42.4218C106.739 40.844 104.218 40.1118 101.83 40.2768C96.5927 40.6274 91.3455 40.8956 86.1086 40.9884L78.2481 41.174C76.9363 41.2049 75.6245 41.2153 74.3127 41.2153C74.1077 41.2153 73.6363 41.2153 73.4518 41.2462C73.2264 41.2565 72.9291 41.2978 72.6729 41.339C72.1298 41.4215 71.6174 41.5762 71.0947 41.7412C66.9031 43.1024 63.9823 47.5264 64.2898 52.2805C64.4435 54.6317 65.458 57.0551 67.272 58.8288L67.2618 58.8185Z" fill="#594A42"/>
<path d="M67.3752 58.6947C68.7792 60.1075 70.6546 60.9841 72.5813 61.2007C73.063 61.2625 73.5447 61.2625 74.0264 61.2316C74.5183 61.2007 75.0308 61.1594 75.5227 61.1182C76.5065 61.0253 77.5006 60.9016 78.4947 60.7675C82.4608 60.2107 86.3552 59.4888 90.3931 59.1279C92.4018 58.9422 94.431 58.8701 96.4602 58.8804C97.4953 58.8907 98.4791 58.9319 99.5142 58.9938C100.529 59.0557 101.564 59.1794 102.466 59.2001C102.691 59.2001 102.937 59.2001 103.173 59.2001C103.337 59.2001 103.675 59.1691 103.849 59.1485C104.29 59.1072 104.71 59.0247 105.212 58.8907C106.073 58.6535 106.975 58.2823 107.764 57.7666C109.342 56.7457 110.654 55.2195 111.3 53.4148C111.628 52.5176 111.802 51.5689 111.853 50.6098C111.874 49.6714 111.74 48.6917 111.474 47.8049C110.91 46.0002 109.773 44.4018 108.307 43.3293C106.842 42.2155 105.1 41.6484 103.347 41.5762C102.917 41.5555 102.476 41.5762 102.045 41.6174L100.57 41.7721L97.5669 42.0505C93.5598 42.3909 89.522 42.6487 85.5046 42.7827C83.5062 42.8446 81.4975 42.8962 79.499 42.9168C78.4947 42.9168 77.5006 42.9477 76.4758 42.9168L73.6882 42.8652H73.8214H73.5652C72.7966 42.9065 72.0075 43.0612 71.1671 43.319C70.4497 43.5252 69.6606 43.9068 68.9842 44.3708C67.5802 45.2989 66.3913 46.6705 65.633 48.3102C64.8746 49.9498 64.5466 51.837 64.8541 53.7035C65.1513 55.5598 66.0429 57.3541 67.3957 58.6844L67.3752 58.6947ZM67.1394 58.9422C65.7252 57.5707 64.7004 55.8073 64.1572 53.8685C63.6038 51.9504 63.573 49.8055 64.0854 47.7842C64.5979 45.7527 65.6842 43.8037 67.3035 42.298C68.1233 41.5555 69.0149 40.9368 70.1115 40.4521C71.0749 40.0396 72.1715 39.689 73.3295 39.5653H73.2065C73.514 39.5343 73.6062 39.5343 73.7599 39.524L74.1596 39.5034L74.9385 39.4724L76.4245 39.4312L79.4068 39.3178C81.4053 39.2456 83.4139 39.194 85.4124 39.1734C89.4195 39.1528 93.3856 39.1012 97.3825 38.9774L100.375 38.895C100.887 38.8846 101.359 38.864 101.902 38.864C102.476 38.864 103.05 38.895 103.603 38.9774C105.848 39.2868 107.959 40.3593 109.527 41.8855C111.136 43.4221 112.212 45.3918 112.683 47.4852C112.94 48.5474 113.001 49.5992 112.919 50.6717C112.847 51.7339 112.632 52.7754 112.253 53.7654C111.515 55.7557 110.183 57.4985 108.502 58.8082C107.641 59.4476 106.739 60.0147 105.704 60.4272C105.253 60.6025 104.71 60.8088 104.167 60.9428C103.849 61.0253 103.696 61.0563 103.357 61.1182C103.101 61.1594 102.835 61.2007 102.568 61.2316C101.472 61.3553 100.508 61.376 99.5142 61.4585C98.5406 61.51 97.526 61.6028 96.5524 61.675L90.6288 62.1597C86.6832 62.5 82.6043 62.6135 78.5562 62.3969C77.5416 62.3556 76.5373 62.2835 75.5227 62.2113C75.0103 62.1803 74.5286 62.1391 74.0161 62.0978C73.4935 62.0566 72.9708 61.9638 72.4686 61.8503C70.4497 61.376 68.5845 60.355 67.1394 58.9216V58.9422Z" fill="#F4F4F4"/>
<path d="M57.6076 72.6783C56.6545 71.2243 55.3017 70.0384 53.7645 69.2959C52.2272 68.5224 50.485 68.2646 48.8452 68.4193C47.0415 68.574 45.2276 68.7699 43.4239 68.8731C41.8149 68.9865 40.3288 69.4299 38.9863 70.2034C36.3012 71.7708 34.4975 74.5758 33.8211 77.587C33.4624 79.0926 33.4009 80.6911 33.6264 82.2585C33.8416 83.8157 34.2618 85.4038 35.0304 86.8785C35.7888 88.3532 36.8751 89.7453 38.3201 90.725C39.7446 91.7459 41.5176 92.2925 43.2906 92.3131C45.1046 92.3131 46.9083 92.2306 48.7223 92.0347C50.4747 91.88 52.0838 91.1685 53.416 90.2094C56.0601 88.2397 57.8331 85.5069 58.735 82.4132C59.1859 80.8664 59.4011 79.1855 59.2576 77.4942C59.1141 75.8133 58.5607 74.1221 57.6076 72.668V72.6783Z" fill="#594A42"/>
<path d="M57.475 72.7712C56.5834 71.3997 55.2409 70.3272 53.7446 69.76C52.2484 69.1722 50.6496 69.1619 49.1943 69.4609C47.6161 69.7909 45.9558 70.1519 44.275 70.3169C43.3629 70.3994 42.7685 70.4509 42.0409 70.6056C41.344 70.75 40.6779 70.9666 40.022 71.245C38.7102 71.7916 37.4803 72.6681 36.4555 73.8231C35.4409 74.9781 34.6621 76.4115 34.2931 77.979C33.9139 79.5362 33.914 81.1758 34.2727 82.7433C34.5904 84.3314 35.2565 85.7958 36.1788 87.0436C36.64 87.6623 37.1524 88.2295 37.7161 88.7039C38.29 89.1886 38.8639 89.5495 39.53 89.9001C40.7906 90.5085 42.1536 90.7973 43.5782 90.7045C45.1872 90.6426 46.7757 90.4982 48.3642 90.2817C48.5384 90.2507 48.8151 90.2301 48.9279 90.1992L49.389 90.096C49.7067 90.0239 50.0244 89.9207 50.3421 89.797C50.9673 89.5598 51.5822 89.2401 52.1663 88.8483C53.3346 88.0542 54.3902 87.0436 55.3126 85.8783C56.2247 84.7233 57.0446 83.4136 57.68 81.9905C58.3154 80.5674 58.7561 79.0102 58.7868 77.3809C58.8073 75.7721 58.3563 74.1325 57.4647 72.7506L57.475 72.7712ZM57.7517 72.5856C59.6169 75.4009 60.365 79.0412 59.8526 82.6196C59.5759 84.4036 58.9918 86.1773 58.0079 87.7551C57.0446 89.3329 55.743 90.7354 54.1955 91.8595C53.4064 92.406 52.5353 92.8701 51.6129 93.2104C51.1518 93.3754 50.6701 93.5095 50.1781 93.6126C49.9322 93.6641 49.6965 93.7054 49.4198 93.7363C49.1328 93.7776 48.9893 93.7776 48.7536 93.7879C47.0421 93.9323 45.3102 93.9632 43.5987 93.891C41.713 93.8704 39.735 93.3135 38.1465 92.2101L37.8391 91.9832L37.5931 91.7976C37.4087 91.6429 37.2241 91.4882 37.0397 91.3335C36.6912 91.0139 36.3736 90.6632 36.0661 90.3023C35.482 89.5804 34.99 88.7967 34.6006 87.982C33.8114 86.363 33.381 84.6202 33.1556 82.9186C32.9301 81.2068 32.9404 79.4433 33.2376 77.7315C33.5245 76.0196 34.0574 74.3078 34.9388 72.73C35.8201 71.1522 37.0909 69.6981 38.7307 68.7081C39.5403 68.2235 40.4422 67.8522 41.3645 67.6253C42.2561 67.3882 43.322 67.316 44.0599 67.3057C45.6894 67.2232 47.3394 67.2232 49.0611 67.2953C50.9058 67.3882 52.689 68.0069 54.134 68.9763C55.5995 69.925 56.8191 71.1522 57.7517 72.565V72.5856Z" fill="#F4F4F4"/>
<path d="M108.657 71.6679C106.73 70.0901 104.209 69.3579 101.821 69.5229C96.5839 69.8735 91.3367 70.1417 86.0998 70.2448L78.2393 70.4201C76.9275 70.4613 75.6157 70.4613 74.3039 70.4613C74.099 70.4613 73.6275 70.4613 73.443 70.4923C73.2176 70.5129 72.9204 70.5542 72.6642 70.5954C72.121 70.6779 71.6086 70.8326 71.0859 70.9976C66.8943 72.3588 63.9735 76.7828 64.281 81.5369C64.4347 83.8881 65.4493 86.3115 67.2632 88.0852C69.0464 89.8693 71.588 90.9521 74.1809 90.9418C79.4178 90.9933 84.665 90.4571 89.902 89.9724C92.5256 89.7558 95.1491 89.5805 97.7625 89.529C99.0743 89.498 100.376 89.5083 101.698 89.529C102.333 89.529 102.835 89.498 103.399 89.4258C103.963 89.364 104.516 89.2402 105.059 89.0752C107.232 88.4359 109.271 87.0334 110.645 85.0534C112.039 83.094 112.674 80.5159 112.315 78.041C111.957 75.566 110.614 73.2354 108.667 71.6885L108.657 71.6679Z" fill="#594A42"/>
<path d="M108.554 71.8019C107.406 70.8738 106.043 70.2448 104.608 69.9973C103.891 69.8632 103.163 69.8323 102.446 69.8838C101.749 69.9457 100.98 70.0798 100.253 70.1726C97.2911 70.616 94.3293 71.0801 91.347 71.3894C88.3647 71.7091 85.3722 71.8122 82.4001 71.8329C80.9141 71.8329 79.4179 71.8329 77.9319 71.771C77.194 71.7401 76.4253 71.7091 75.6772 71.6679L74.5602 71.5854C74.2527 71.5544 73.7608 71.5441 73.5865 71.5338H73.689H73.5148C71.9468 71.5441 70.3583 71.9669 68.985 72.8229C67.622 73.6994 66.4741 74.9781 65.7465 76.4838C65.0189 77.979 64.7012 79.6806 64.8139 81.3306C64.9369 82.9806 65.5313 84.5893 66.4742 85.9093C68.4111 88.6008 71.5676 89.8795 74.7036 89.5702C78.1266 89.4155 81.5496 89.1164 84.993 88.7246L90.1992 88.1471C91.9414 87.9718 93.7041 87.8377 95.4771 87.7655C97.2398 87.683 99.0231 87.683 100.796 87.7449C101.729 87.7861 102.405 87.8068 103.215 87.7449C103.235 87.7449 103.112 87.7552 103.174 87.7449H103.194H103.235H103.317L103.481 87.7243C103.594 87.7243 103.655 87.7036 103.737 87.683C103.881 87.6727 104.076 87.6211 104.25 87.5902C104.434 87.5489 104.588 87.518 104.813 87.4561C105.049 87.3943 105.152 87.3633 105.336 87.3015C108.154 86.4043 110.758 84.1046 111.577 80.8975C111.998 79.3197 111.977 77.5769 111.444 75.9681C110.901 74.3491 109.897 72.8847 108.554 71.8019ZM108.759 71.5338C110.163 72.6269 111.28 74.081 112.018 75.7309C112.387 76.5456 112.674 77.4428 112.838 78.34C112.992 79.2475 113.033 80.1859 112.961 81.1243C112.889 82.0628 112.694 83.0012 112.377 83.9087C112.213 84.3624 112.018 84.8059 111.772 85.2699L111.618 85.5587L111.526 85.7237L111.424 85.8783C111.301 86.0846 111.167 86.2908 111.024 86.4971C109.897 88.1058 108.308 89.3949 106.484 90.2302C106.258 90.323 105.961 90.457 105.777 90.5189C105.592 90.5911 105.326 90.6839 105.09 90.7561C104.834 90.8283 104.608 90.8902 104.332 90.952L103.953 91.0345L103.573 91.0964C103.122 91.1583 102.63 91.1995 102.128 91.2305L101.431 91.2511H100.776C99.0538 91.282 97.3525 91.3336 95.6411 91.4161C93.9296 91.4986 92.2181 91.612 90.4862 91.7152L85.2799 92.0761C81.7852 92.2823 78.2495 92.468 74.6933 92.303L74.0272 92.272C73.7813 92.2617 73.5353 92.2411 73.2893 92.1998C72.7974 92.1483 72.3157 92.0451 71.8443 91.9111C70.9015 91.6533 69.9996 91.2717 69.1695 90.7767C68.3394 90.2817 67.5912 89.6939 66.9046 88.9927C66.2589 88.3327 65.6645 87.5489 65.2034 86.7343C63.3382 83.4446 63.2459 79.3712 64.8139 76.0506C65.5723 74.38 66.6996 72.8538 68.1754 71.6988C68.903 71.111 69.7229 70.616 70.6145 70.2551C71.0654 70.0591 71.4446 69.9148 71.957 69.7601C72.2132 69.6879 72.3567 69.6466 72.6335 69.5848C72.8692 69.5332 73.0946 69.4919 73.361 69.4507H73.2893C73.8632 69.3785 74.1092 69.3682 74.5499 69.3373L75.6669 69.2548L77.8806 69.0898C79.3564 68.966 80.8526 68.8938 82.3387 68.8216C85.3209 68.6979 88.293 68.7082 91.2548 68.7907C94.2166 68.8835 97.1989 69.0279 100.181 69.0898C100.94 69.1001 101.657 69.0898 102.436 69.131C103.215 69.1826 103.973 69.3063 104.711 69.5023C106.187 69.9044 107.58 70.5851 108.749 71.5441L108.759 71.5338Z" fill="#F4F4F4"/>
<path d="M57.6086 101.739C56.6555 100.285 55.3027 99.0989 53.7654 98.3564C52.2282 97.583 50.486 97.3252 48.8462 97.4799C47.0425 97.6242 45.2286 97.8305 43.4248 97.9439C41.8158 98.047 40.3298 98.5008 38.9873 99.2742C36.3022 100.842 34.4985 103.647 33.8221 106.658C33.4634 108.174 33.4019 109.772 33.6274 111.329C33.8426 112.887 34.2628 114.475 35.0314 115.949C35.7898 117.424 36.8761 118.816 38.3211 119.796C39.7456 120.806 41.5186 121.363 43.2916 121.374C45.1056 121.374 46.9093 121.291 48.7232 121.095C50.4757 120.941 52.0847 120.229 53.417 119.27C56.0611 117.311 57.8341 114.578 58.7359 111.484C59.1869 109.937 59.402 108.256 59.2586 106.575C59.1151 104.894 58.5617 103.203 57.6086 101.749V101.739Z" fill="#594A42"/>
<path d="M57.4755 101.832C56.5839 100.45 55.2414 99.3877 53.7451 98.8205C52.2488 98.2327 50.6501 98.2224 49.1948 98.5318C47.6166 98.8721 45.9563 99.2227 44.2755 99.3877C43.3634 99.4599 42.769 99.5218 42.0414 99.6765C41.3445 99.8311 40.6784 100.037 40.0225 100.316C38.7209 100.862 37.4808 101.739 36.456 102.894C35.4414 104.049 34.6625 105.482 34.2936 107.05C33.9144 108.607 33.9247 110.247 34.2731 111.814C34.5908 113.402 35.257 114.867 36.1793 116.114C36.6405 116.733 37.1529 117.3 37.7166 117.775C38.2905 118.259 38.8644 118.61 39.5305 118.971C40.7911 119.579 42.1541 119.868 43.5786 119.775C45.1876 119.703 46.7864 119.569 48.3647 119.353C48.5389 119.322 48.8156 119.291 48.9283 119.27L49.3895 119.167C49.7072 119.095 50.0249 118.992 50.3324 118.868C50.9678 118.631 51.5724 118.311 52.1668 117.919C53.3351 117.135 54.3907 116.125 55.3131 114.949C56.2252 113.794 57.0451 112.484 57.6805 111.061C58.3159 109.638 58.7566 108.071 58.7873 106.452C58.8078 104.853 58.3568 103.193 57.4652 101.821L57.4755 101.832ZM57.7522 101.646C59.6174 104.461 60.3655 108.102 59.8531 111.67C59.5764 113.454 58.9923 115.228 58.0084 116.816C57.0451 118.393 55.7435 119.796 54.196 120.92C53.4068 121.467 52.5358 121.931 51.6134 122.271C51.1522 122.436 50.6705 122.58 50.1786 122.683C49.9224 122.735 49.697 122.766 49.4202 122.797C49.1333 122.838 48.9898 122.838 48.7541 122.859C47.0426 122.993 45.3107 123.034 43.6094 122.972C41.7237 122.941 39.7458 122.395 38.1573 121.291L37.8498 121.064L37.6039 120.868C37.4194 120.724 37.2349 120.569 37.0504 120.404C36.702 120.085 36.3843 119.734 36.0768 119.373C35.4926 118.641 35.0007 117.868 34.6113 117.053C33.8222 115.444 33.3918 113.701 33.1663 111.989C32.9408 110.278 32.9511 108.524 33.2483 106.802C33.5353 105.09 34.0681 103.379 34.9495 101.801C35.8309 100.223 37.1017 98.769 38.7517 97.779C39.5613 97.2943 40.4631 96.923 41.3855 96.6962C42.2771 96.459 43.3429 96.3868 44.0808 96.3662C45.7103 96.294 47.3603 96.2837 49.082 96.3662C50.9267 96.459 52.71 97.0777 54.155 98.0471C55.6205 98.9958 56.8401 100.223 57.7727 101.636L57.7522 101.646Z" fill="#F4F4F4"/>
<path d="M108.657 100.718C106.73 99.1399 104.209 98.4077 101.821 98.5727C96.5839 98.9233 91.3367 99.1915 86.0998 99.2843L78.2393 99.4596C76.9275 99.4905 75.6157 99.5008 74.3039 99.5008C74.099 99.5008 73.6275 99.5112 73.443 99.5318C73.2176 99.5421 72.9204 99.5833 72.6642 99.6246C72.121 99.7071 71.6086 99.8618 71.0859 100.027C66.8943 101.378 63.9735 105.812 64.281 110.566C64.4347 112.917 65.4493 115.341 67.2632 117.114C69.0464 118.898 71.588 119.981 74.1809 119.971C79.4178 120.012 84.665 119.486 89.902 119.002C92.5256 118.785 95.1491 118.61 97.7625 118.558C99.0743 118.527 100.376 118.538 101.698 118.548C102.333 118.548 102.835 118.517 103.399 118.455C103.963 118.383 104.516 118.259 105.059 118.094C107.232 117.455 109.271 116.063 110.645 114.072C112.039 112.103 112.674 109.535 112.315 107.05C111.957 104.575 110.614 102.244 108.667 100.697L108.657 100.718Z" fill="#594A42"/>
<path d="M108.554 100.852C107.406 99.9236 106.043 99.2946 104.608 99.0471C103.891 98.913 103.163 98.8821 102.446 98.9336C101.749 98.9955 100.98 99.1296 100.253 99.2224C97.2911 99.6658 94.3293 100.13 91.347 100.45C88.3647 100.759 85.3722 100.872 82.4001 100.883C80.9141 100.883 79.4179 100.883 77.9319 100.821C77.194 100.79 76.4253 100.759 75.6772 100.718L74.5602 100.645C74.2527 100.615 73.7608 100.604 73.5865 100.594H73.6993H73.5148C71.9673 100.604 70.3685 101.027 68.9952 101.893C67.6322 102.76 66.4844 104.049 65.7568 105.544C65.0291 107.039 64.7114 108.741 64.8242 110.401C64.9472 112.051 65.5416 113.66 66.4844 114.98C68.4214 117.682 71.5778 118.96 74.7138 118.651C78.1368 118.496 81.5598 118.197 85.0033 117.805L90.2094 117.228C91.9516 117.053 93.7144 116.918 95.4874 116.846C97.2501 116.764 99.0436 116.774 100.806 116.826C101.739 116.867 102.405 116.888 103.225 116.826L103.491 116.795C103.614 116.795 103.666 116.774 103.748 116.764C103.891 116.743 104.086 116.702 104.26 116.671C104.444 116.63 104.598 116.599 104.824 116.537C105.059 116.475 105.162 116.444 105.346 116.382C108.165 115.485 110.768 113.175 111.588 109.978C112.008 108.4 111.987 106.658 111.454 105.049C110.911 103.44 109.907 101.965 108.564 100.883L108.554 100.852ZM108.759 100.584C110.163 101.687 111.27 103.131 112.018 104.781C112.387 105.606 112.674 106.493 112.838 107.39C112.992 108.297 113.043 109.236 112.961 110.174C112.889 111.113 112.694 112.051 112.377 112.958C112.213 113.412 112.018 113.856 111.772 114.32L111.618 114.608L111.526 114.763L111.424 114.918C111.301 115.134 111.167 115.33 111.024 115.537C109.897 117.145 108.308 118.434 106.484 119.27C106.258 119.362 105.961 119.486 105.777 119.558C105.592 119.631 105.326 119.723 105.09 119.796C104.834 119.868 104.608 119.94 104.321 119.992L103.942 120.074L103.563 120.136C103.112 120.208 102.62 120.249 102.128 120.27L101.421 120.291H100.765C99.0435 120.332 97.3423 120.373 95.6411 120.456L90.4861 120.755L85.2799 121.116C81.7852 121.322 78.2495 121.507 74.6933 121.332L74.0272 121.301C73.7813 121.281 73.525 121.27 73.2893 121.239C72.7974 121.177 72.3157 121.085 71.8443 120.951C70.9015 120.693 69.9996 120.301 69.1695 119.816C68.3394 119.321 67.5912 118.733 66.9046 118.032C66.2589 117.383 65.6645 116.588 65.2034 115.774C63.3382 112.484 63.2459 108.411 64.8139 105.09C65.5723 103.43 66.6996 101.893 68.1754 100.738C68.903 100.15 69.7229 99.6555 70.6145 99.2946C71.0654 99.1089 71.4446 98.9646 71.957 98.8099C72.2132 98.7377 72.3567 98.6964 72.6335 98.6346C72.8692 98.583 73.0946 98.5418 73.3713 98.5005H73.2893C73.8632 98.4283 74.1092 98.418 74.5499 98.3871L75.6669 98.3046L77.8806 98.1396C79.3564 98.0158 80.8526 97.954 82.3387 97.8715C85.3209 97.7477 88.293 97.7477 91.2548 97.8302C94.2166 97.923 97.1989 98.0674 100.181 98.1293C100.94 98.1499 101.657 98.1293 102.436 98.1705C103.215 98.2221 103.973 98.3458 104.711 98.5418C106.187 98.9439 107.58 99.6246 108.749 100.584H108.759Z" fill="#F4F4F4"/>
</svg>
